<svg width="49" height="48" viewBox="0 0 49 48" fill="none" xmlns="http://www.w3.org/2000/svg">
<path d="M47.6662 31.9352C47.3 29.498 45.4175 29.1379 42.2966 29.3385L41.8468 29.3674L41.8955 28.9191C42.0124 27.8358 42.1948 24.2576 39.6573 23.744C38.887 23.5875 35.014 23.6346 34.3439 23.8078C33.6647 23.9841 32.3216 25.2513 32.3216 25.8438V29.3385H28.523V6.26305C28.4288 6.05641 27.6934 5.64161 27.4594 5.63553H24.7852L24.7305 5.31949C24.6531 4.86063 24.688 4.21791 24.7245 3.53873C24.8035 2.09072 24.9022 0.291729 23.8888 0.0486215L6.7406 0.00911653L6.70565 0C6.50508 0.0106359 5.97936 0.455826 5.88212 0.657909V5.63401H2.99522C2.7278 5.63401 2.13371 6.0868 2 6.37701L2.07293 47.3528C2.26742 47.7721 2.76123 47.8709 3.14868 47.88H45.0771C46.5616 47.7934 47.5325 46.8164 47.6738 45.2636C47.8729 43.0741 47.7817 40.6734 47.692 38.3532C47.61 36.2154 47.5249 34.0046 47.6647 31.9352H47.6662ZM7.85737 2.13935H22.5958V5.63401H7.85737V2.13935ZM9.07291 45.7467H4.05882V37.8457H9.07291V45.7467ZM19.253 45.7467H11.2001V37.8457H19.253V45.7467ZM26.3943 45.7467H21.3802V37.8457H26.3943V45.7467ZM26.5463 35.7186H4.05882V7.7612H26.5463V35.7186ZM34.4472 26.4501C34.4472 26.1295 34.9669 25.8074 34.973 25.8043C35.5139 25.5506 38.9782 25.4822 39.6589 26.1857L39.7652 26.2966V29.337H34.4472V26.4501ZM45.539 45.7467H28.9712L28.5215 45.297V37.9126L35.8421 39.4108L35.874 39.6842C35.9879 40.6673 36.617 41.1474 37.1837 41.1231C37.7459 41.0943 38.103 40.5716 38.1136 39.7602L38.1182 39.4548L45.5405 37.9111V45.7467H45.539ZM45.539 35.322L45.5208 35.3782C45.3992 35.7581 44.9556 35.9343 41.1585 36.6728C40.1344 36.8718 39.0754 37.0784 38.7989 37.1833L38.6971 37.2228L38.2109 37.1255L38.1303 36.9508C37.8948 36.4448 37.477 36.1501 37.0318 36.1668C36.5866 36.182 36.2037 36.4919 36.0062 36.9994L35.8877 37.3033L28.7129 35.7155L28.6643 35.4739C28.4288 34.3101 28.4349 32.9228 28.681 31.765L28.7449 31.4642H45.0878L45.5375 31.9139V35.3205L45.539 35.322Z" fill="white"/>
<path d="M9.66097 14.0882C9.94207 13.9134 10.366 13.5062 10.0499 12.7298C9.84786 12.2345 9.41331 12.1205 9.08359 12.1129C8.46671 12.0992 7.78449 12.4609 7.57025 12.9213C7.42287 13.2373 7.5034 13.5731 7.81032 13.921C8.26007 14.43 9.12918 14.4179 9.66097 14.0882Z" fill="white"/>
<path d="M9.66097 25.4837C9.94207 25.3089 10.366 24.9017 10.0499 24.1253C9.84786 23.63 9.41331 23.516 9.08359 23.5084C8.46671 23.4948 7.78449 23.8564 7.57025 24.3168C7.42287 24.6328 7.5034 24.9686 7.81032 25.3165C8.26007 25.8255 9.12918 25.8134 9.66097 25.4837Z" fill="white"/>
<path d="M15.6489 14.2675C16.0713 14.1809 16.3707 13.9347 16.4907 13.5716C16.6107 13.2115 16.5302 12.8134 16.281 12.5308C15.9726 12.1828 15.4484 12.0628 14.8072 12.195C14.1067 12.3393 13.8925 12.8878 13.9897 13.368C14.1067 13.9393 14.6765 14.465 15.6489 14.266V14.2675Z" fill="white"/>
<path d="M20.8135 14.0911C21.3346 14.4148 22.184 14.4421 22.6444 13.921C22.9543 13.57 23.0364 13.2342 22.892 12.9227C22.6839 12.4775 22.026 12.125 21.4121 12.125C21.4 12.125 21.3863 12.125 21.3741 12.125C21.0414 12.1326 20.6038 12.245 20.4063 12.7297C20.0933 13.4986 20.5278 13.9118 20.815 14.0911H20.8135Z" fill="white"/>
<path d="M15.6489 25.6632C16.0713 25.5766 16.3707 25.3305 16.4907 24.9673C16.6107 24.6072 16.5302 24.2091 16.281 23.9265C15.9726 23.5786 15.4484 23.4585 14.8072 23.5907C14.1067 23.7351 13.8925 24.2836 13.9897 24.7637C14.1067 25.335 14.6765 25.8608 15.6489 25.6617V25.6632Z" fill="white"/>
<path d="M20.8135 25.4866C21.3346 25.8103 22.184 25.8376 22.6444 25.3165C22.9543 24.9655 23.0364 24.6297 22.892 24.3182C22.6839 23.873 22.026 23.5205 21.4121 23.5205C21.4 23.5205 21.3863 23.5205 21.3741 23.5205C21.0414 23.5281 20.6038 23.6405 20.4063 24.1252C20.0933 24.8941 20.5278 25.3073 20.815 25.4866H20.8135Z" fill="white"/>
<path d="M8.97713 17.7969C8.5912 17.7969 8.19615 17.9473 7.91202 18.1965C7.64916 18.4274 7.29361 18.9152 7.85428 19.5928C8.23109 20.0487 8.75074 20.0289 9.02575 19.9757C9.55755 19.8754 10.0255 19.5138 10.1623 19.0975C10.2641 18.7875 10.1714 18.4761 9.88878 18.1722C9.64416 17.9108 9.31444 17.7969 8.97865 17.7969H8.97713Z" fill="white"/>
<path d="M15.2949 17.803C15.2265 17.803 15.1566 17.8075 15.0822 17.8151C14.5565 17.8744 14.1872 18.1266 14.0429 18.5262C13.9062 18.9015 13.9973 19.3315 14.2739 19.6232C14.6233 19.9909 15.1946 20.076 15.8844 19.8648C16.4345 19.6962 16.5864 19.1522 16.4968 18.7177C16.4056 18.2786 16.0364 17.803 15.2964 17.803H15.2949Z" fill="white"/>
<path d="M21.6325 17.8138C21.5747 17.8138 21.517 17.8168 21.4578 17.8214C20.7497 17.8806 20.3805 18.3957 20.3288 18.8804C20.2893 19.2511 20.4321 19.7055 20.9533 19.865C21.6933 20.0929 22.2828 19.9987 22.614 19.6006C22.8845 19.277 22.9331 18.7801 22.7325 18.3957C22.535 18.0159 22.1476 17.8123 21.6325 17.8123V17.8138Z" fill="white"/>
<path d="M8.97713 29.1926C8.5912 29.1926 8.19615 29.343 7.91202 29.5922C7.64916 29.8232 7.29361 30.3109 7.85428 30.9886C8.23109 31.4444 8.75074 31.4247 9.02575 31.3715C9.55755 31.2712 10.0255 30.9096 10.1623 30.4933C10.2641 30.1833 10.1714 29.8718 9.88878 29.5679C9.64416 29.3066 9.31444 29.1926 8.97865 29.1926H8.97713Z" fill="white"/>
<path d="M15.2949 29.1987C15.2265 29.1987 15.1566 29.2033 15.0822 29.2109C14.5565 29.2701 14.1872 29.5224 14.0429 29.922C13.9062 30.2973 13.9973 30.7273 14.2739 31.019C14.6233 31.3867 15.1946 31.4718 15.8844 31.2606C16.4345 31.0919 16.5864 30.548 16.4968 30.1134C16.4056 29.6743 16.0364 29.1987 15.2964 29.1987H15.2949Z" fill="white"/>
<path d="M21.6325 29.2095C21.5747 29.2095 21.517 29.2126 21.4578 29.2171C20.7497 29.2764 20.3805 29.7915 20.3288 30.2762C20.2893 30.6469 20.4321 31.1012 20.9533 31.2607C21.6933 31.4871 22.2828 31.3945 22.614 30.9964C22.8845 30.6727 22.9331 30.1759 22.7325 29.7915C22.535 29.4116 22.1476 29.208 21.6325 29.208V29.2095Z" fill="white"/>
</svg>
