<svg width="49" height="48" viewBox="0 0 49 48" fill="none" xmlns="http://www.w3.org/2000/svg">
<path d="M23.7224 5.47789C36.0264 4.67143 43.3604 17.9574 37.7516 28.5204C35.775 32.2428 31.4027 34.4313 31.0311 38.8778C30.8493 41.0553 31.3933 44.3001 30.9932 46.2719C30.843 47.0136 29.8025 47.9987 29.0419 48.1157C27.6867 48.3245 21.7205 48.3245 20.3654 48.1157C19.4609 47.9766 18.4836 46.9029 18.3745 45.9952C18.1184 43.8636 18.5485 41.2292 18.384 39.0281C18.0677 34.7997 14.7249 33.1378 12.5538 29.9942C5.86337 20.3025 11.5908 6.27169 23.7224 5.47789ZM27.0748 35.4749H30.3164C31.8914 32.6033 34.948 30.5713 36.4328 27.676C40.4667 19.8091 36.8313 9.61928 27.9951 7.43552C16.0896 4.49275 7.46996 17.211 12.9728 27.676C14.5162 30.6109 17.5254 32.5495 19.0102 35.4749H22.3309V37.0562H19.6427C20.3654 38.4209 19.5621 45.7564 20.155 46.3479C20.4017 46.5265 20.6927 46.525 20.9805 46.5503C22.9571 46.7163 26.2715 46.6878 28.2671 46.5503C28.9328 46.5044 29.3249 46.5929 29.4325 45.8229C29.812 43.0762 28.985 39.8219 29.763 37.0562H27.0748V35.4749Z" fill="white"/>
<path d="M19.2473 30.731C18.2227 30.5871 17.4257 29.7633 17.285 28.7402C17.2344 28.3733 17.3561 27.4499 17.2454 27.2759C17.2012 27.2064 16.1512 26.7082 15.8476 26.3809C14.3628 24.7775 14.4481 21.2844 16.6351 20.2882C16.3805 19.5482 15.8191 19.1386 15.7037 18.3021C15.3273 15.587 16.7584 13.2736 19.6443 13.3353C19.4893 11.7619 20.0617 10.3546 21.7774 10.1711C22.8985 10.051 27.3435 10.0288 28.2702 10.3214C29.5937 10.7388 29.921 12.0908 29.7645 13.3337C33.5185 13.3005 34.8736 17.4419 32.7705 20.2028C35.4555 21.7636 35.0507 26.5232 31.9751 27.2522C32.6203 28.4935 31.6241 30.7295 30.1582 30.7295H25.4934V38.794C25.4934 38.9063 26.7395 39.221 27.0067 40.3642C27.3293 41.7463 26.6636 42.703 25.4919 43.3339L25.4033 44.9642H23.9121L23.9153 43.3339C22.3562 42.6034 21.7078 40.6995 22.9808 39.3665C23.2195 39.1166 23.9121 38.8494 23.9121 38.7956V30.731C22.4621 30.5856 20.65 30.9287 19.2473 30.731ZM23.9121 11.7556H21.6193C21.0089 11.7556 20.9994 13.8097 22.3309 13.3369V14.9182H18.9311C18.8062 14.9182 18.0614 15.3562 17.9175 15.4858C16.5797 16.7082 17.1284 19.4391 19.0845 19.6636C21.3663 19.9261 21.2445 17.8009 19.1667 18.0807V16.4979C21.7742 15.9523 23.588 19.2493 21.2129 20.8369C20.0127 21.6386 18.8251 20.9223 17.5854 21.4789C16.2097 22.0956 16.0626 24.5008 17.1237 25.4227C18.1847 26.3445 21.556 26.2544 20.6009 24.7917C20.1724 24.1339 19.0639 24.4865 18.3761 24.4075V22.8246C19.5336 22.8499 20.7622 22.5858 21.6414 23.5125C22.8859 24.8234 22.3451 27.0419 20.5962 27.4957C20.1281 27.6175 19.6664 27.4894 19.2774 27.6001C18.5374 27.8104 18.8773 29.1498 19.2458 29.1498H23.9106V11.7556H23.9121ZM27.7863 11.7556H25.4934V29.1498H30.1582C30.5283 29.1498 30.8682 27.8088 30.1266 27.6001C29.0877 27.306 28.705 27.8373 27.7025 26.7035C26.8628 25.7547 26.817 24.7585 27.625 23.7702C28.5975 22.5795 29.6364 22.8167 31.0295 22.8246V24.4075C30.4856 24.4707 28.9944 24.1861 28.7604 24.7601C28.1389 26.2845 30.3907 26.1374 31.3489 25.9129C33.3572 25.4432 33.6292 22.0782 31.5893 21.3935C30.446 21.0093 29.3676 21.5659 28.2876 20.9002C25.7243 19.3189 27.5871 16.0045 30.2389 16.4979V18.0807C28.762 17.5463 27.9618 19.4517 29.3771 19.6462C31.4501 19.9308 32.7579 18.3385 32.0257 16.3714C31.8344 15.8559 31.0011 14.9182 30.4745 14.9182H27.0747V13.3369C28.2607 13.7638 28.5406 11.9675 27.7863 11.7556ZM25.2958 40.4164C24.2158 39.3364 23.0867 41.8554 24.7708 41.7906C25.5077 41.7621 25.7117 40.8323 25.2958 40.4164Z" fill="white"/>
<path d="M5.78812 19.8031L5.12556 19.8058C4.50376 19.8084 4.00181 20.3146 4.00441 20.9364C4.00702 21.5582 4.51319 22.0602 5.13499 22.0576L5.79755 22.0548C6.41935 22.0522 6.9213 21.546 6.9187 20.9242C6.91609 20.3024 6.40991 19.8005 5.78812 19.8031Z" fill="white"/>
<path d="M8.8658 10.4131L8.29062 10.0842C7.75082 9.7756 7.06303 9.96298 6.75438 10.5028C6.44574 11.0426 6.63313 11.7304 7.17292 12.039L7.7481 12.3679C8.28789 12.6765 8.97569 12.4891 9.28433 11.9493C9.59298 11.4096 9.40559 10.7218 8.8658 10.4131Z" fill="white"/>
<path d="M16.2235 3.819L15.8898 3.2466C15.5766 2.70941 14.8873 2.52779 14.3501 2.84094C13.8129 3.1541 13.6313 3.84344 13.9444 4.38063L14.2781 4.95303C14.5913 5.49023 15.2806 5.67184 15.8178 5.35869C16.355 5.04553 16.5366 4.35619 16.2235 3.819Z" fill="white"/>
<path d="M25.8949 1.78842L25.8921 1.12587C25.8895 0.504067 25.3833 0.00211145 24.7615 0.00471605C24.1397 0.00732065 23.6378 0.513499 23.6404 1.1353L23.6431 1.79785C23.6458 2.41965 24.1519 2.92161 24.7737 2.919C25.3955 2.9164 25.8975 2.41022 25.8949 1.78842Z" fill="white"/>
<path d="M35.2841 4.86433L35.613 4.28916C35.9216 3.74936 35.7342 3.06156 35.1944 2.75292C34.6546 2.44427 33.9668 2.63166 33.6582 3.17146L33.3293 3.74663C33.0207 4.28643 33.2081 4.97423 33.7479 5.28287C34.2877 5.59151 34.9754 5.40413 35.2841 4.86433Z" fill="white"/>
<path d="M41.8781 12.2242L42.4505 11.8905C42.9877 11.5773 43.1693 10.888 42.8561 10.3508C42.543 9.81362 41.8536 9.63201 41.3164 9.94516L40.744 10.2788C40.2069 10.592 40.0252 11.2813 40.3384 11.8185C40.6515 12.3557 41.3409 12.5373 41.8781 12.2242Z" fill="white"/>
<path d="M43.9095 21.8942L44.572 21.8914C45.1938 21.8888 45.6958 21.3827 45.6932 20.7609C45.6906 20.1391 45.1844 19.6371 44.5626 19.6397L43.9 19.6425C43.2782 19.6451 42.7763 20.1513 42.7789 20.7731C42.7815 21.3949 43.2877 21.8968 43.9095 21.8942Z" fill="white"/>
</svg>
