<svg width="49" height="48" viewBox="0 0 49 48" fill="none" xmlns="http://www.w3.org/2000/svg">
<g clip-path="url(#clip0_108_50)">
<path d="M44.2561 34.3622V36.0872L45.6047 36.2283C46.0752 36.6078 45.5749 38.3892 47.4207 38.96C47.8848 39.1043 48.6125 38.9475 48.7724 39.4901C48.8822 39.8617 48.854 41.5099 48.8038 41.9678C48.6877 43.0529 48.0322 43.8229 46.9628 44.0472L0.653346 44.0142C0.551415 43.9688 0.421258 43.9311 0.344418 43.8527C0.109193 43.6143 0.143693 40.9359 0.186033 40.3933C0.30835 38.8377 1.10498 37.3684 2.39714 36.4886C3.24081 35.9131 5.80476 35.1478 5.96942 34.0909C6.02117 33.7584 4.83564 31.8955 4.61766 31.2682C3.16397 27.1016 4.36989 22.9036 9.36606 22.9036C14.8985 22.9036 15.7751 28.0786 13.7067 32.2718C13.034 33.6361 11.7669 34.0313 13.575 35.1698C13.8965 35.3721 14.9879 35.9507 15.3141 35.9288C15.7908 35.8959 17.7134 34.9377 17.9784 34.5065C18.5132 33.6346 18.027 33.6455 17.7244 33.0606C15.6246 28.9834 15.2859 23.1326 21.2778 22.9083C26.8401 22.6998 27.9943 27.3854 26.0936 31.8014C25.5228 33.128 24.1068 33.9858 25.6452 35.0192C25.9525 35.2262 27.8876 36.1875 28.1511 36.1954C28.5196 36.2063 29.0747 35.968 29.5185 36.0872V34.3622H27.2431C26.7115 34.3622 26.5045 33.2676 26.9561 32.9383L46.5723 32.9101C47.4254 33.3068 46.8106 34.3622 46.5315 34.3622H44.2577H44.2561ZM9.10261 24.5204C6.97775 24.5988 5.47074 25.7687 5.51151 28.0127C5.56013 30.699 7.73046 35.8535 10.9969 33.3288C12.6843 32.0241 13.7977 28.0927 12.8239 26.1983C12.1448 24.8779 10.481 24.4702 9.10261 24.522V24.5204ZM21.3327 24.5251C17.6381 24.6898 17.3574 27.4231 18.1807 30.4073C19.6422 35.7124 24.1899 34.577 25.2092 29.664C25.8647 26.5041 24.847 24.3683 21.3343 24.5251H21.3327ZM42.6879 34.3622H31.0835V36.0872H42.6879V34.3622ZM1.7589 39.9292C1.63188 40.685 1.85142 41.7231 1.7589 42.5166H12.2656C12.1401 40.4294 12.4444 38.3767 13.9906 36.8728C13.0058 36.5357 11.7167 35.9256 11.4799 34.8326C10.1784 35.7186 8.55845 35.6732 7.25061 34.8326C6.443 36.9998 3.65638 36.6925 2.41282 38.5445C2.26542 38.7625 1.79497 39.719 1.7589 39.9292ZM13.8338 40.2428C13.7287 40.9202 13.9106 41.8094 13.8338 42.5166H24.9677C25.01 42.4022 24.8109 42.3285 24.8109 42.2814V39.4587C24.8109 39.0604 25.8255 39.0761 26.0733 38.9961C26.5735 38.833 27.8986 38.1838 27.32 37.5769C26.5955 36.8164 23.9108 36.5357 23.7022 34.9989C22.1889 35.5712 20.9297 35.6481 19.4148 34.9769C18.5335 37.0484 15.5525 36.8869 14.4281 38.7985C14.2964 39.0212 13.8651 40.0374 13.8338 40.2428ZM44.3878 37.6804L29.2974 37.6444C28.9195 39.0824 27.8751 40.1675 26.401 40.4984C26.3759 40.9359 26.2599 42.1309 26.6409 42.3708L46.8122 42.4837C47.4787 42.2877 47.2027 41.0363 47.2152 40.4968C45.7694 40.1111 44.8473 39.0886 44.3878 37.6789V37.6804Z" fill="white"/>
<path d="M30.1426 9.89909C26.9702 9.33612 27.1851 3.73778 30.3951 3.33005C34.419 2.81883 39.5061 3.6186 43.6367 3.3818C45.6721 3.95575 45.8556 5.7858 45.6737 7.63309C45.6188 8.20077 45.3428 8.84371 44.9445 9.25614C44.5054 9.71091 43.552 9.85518 43.4673 10.288L43.4626 22.3409C44.5885 22.7894 45.5169 23.4182 45.6659 24.7167C45.876 26.553 45.6847 28.5994 43.552 29.0322L29.8212 28.9554C27.1678 28.2576 27.2447 22.9509 30.1395 22.4428V19.6201H4.66C4.55493 19.6201 3.80692 19.3175 3.63285 19.2359C1.19279 18.088 1.14574 14.5863 3.53406 13.3177C3.6893 13.2346 4.43261 12.8755 4.50318 12.8755H30.1426V9.89595V9.89909ZM30.2524 4.91233C29.2096 5.21655 29.0763 8.38581 30.5425 8.47676C34.4927 8.15215 39.2254 8.94251 43.0815 8.48931C44.7328 8.29486 44.6826 5.11462 43.2258 4.88881L30.2524 4.91233ZM41.9039 10.0559H31.7108V22.4444H41.9039V10.0559ZM30.1426 14.2899H4.97363C3.38665 14.2899 2.58845 16.7394 4.21307 17.7164C4.31657 17.7791 4.93129 18.0535 4.97363 18.0535H30.1426V14.2899ZM30.6852 23.9341C29.0057 23.9012 29.0261 27.4515 30.5707 27.5817C34.4519 27.3151 39.1376 28.0663 42.9247 27.6225C44.7987 27.4029 44.6497 24.149 43.1662 23.9216L30.6852 23.9341Z" fill="white"/>
<path d="M46.9784 44.2025H46.9628L0.620418 44.1695L0.590623 44.1554C0.5671 44.146 0.543578 44.135 0.518487 44.1256C0.422829 44.088 0.314626 44.0441 0.233082 43.9625C-0.111914 43.6128 0.0276525 40.4122 0.0292206 40.3809C0.15781 38.7468 1.00932 37.243 2.30933 36.3585C2.57435 36.1782 2.9805 35.99 3.45252 35.7705C4.40596 35.3282 5.71381 34.7214 5.81574 34.0659C5.82515 33.9044 5.39234 33.1109 5.10693 32.5855C4.82937 32.0759 4.56748 31.596 4.47026 31.32C3.5717 28.7451 3.70813 26.3505 4.84348 24.7526C5.77497 23.4416 7.33843 22.7469 9.36606 22.7469C11.527 22.7469 13.1563 23.531 14.0768 25.0129C15.2404 26.8853 15.1526 29.6938 13.8447 32.3425C13.6581 32.7188 13.4323 33.0199 13.2331 33.2849C12.9666 33.6393 12.7564 33.9185 12.805 34.1803C12.8505 34.4265 13.1281 34.7072 13.655 35.0381C14.0596 35.2922 15.0585 35.7893 15.3 35.7736C15.7563 35.7422 17.6115 34.7998 17.842 34.4265C18.1682 33.8965 18.0819 33.7946 17.8733 33.5484C17.7855 33.4433 17.6758 33.3147 17.5832 33.1344C16.4008 30.8402 15.507 27.329 16.876 24.9846C17.6961 23.5827 19.1733 22.8316 21.27 22.7531C23.5234 22.67 25.2296 23.3773 26.2066 24.8043C27.3858 26.5261 27.3968 29.1654 26.2348 31.8657C26.0733 32.2421 25.8427 32.5855 25.6389 32.8897C25.0994 33.6958 24.7419 34.229 25.7283 34.8923C26.0341 35.0977 27.9174 36.0245 28.1526 36.0433C28.2781 36.0449 28.4412 36.0151 28.6137 35.9822C28.8489 35.9367 29.1077 35.8865 29.357 35.9069V34.5238H27.24C26.9624 34.5238 26.7288 34.3136 26.6143 33.9624C26.4873 33.575 26.5312 33.056 26.8605 32.816L26.9013 32.7863L46.6037 32.758L46.635 32.7721C47.0521 32.9666 47.2356 33.3351 47.1353 33.7852C47.0584 34.1349 46.7887 34.5238 46.5268 34.5238H44.4098V35.9508L45.6643 36.081L45.7004 36.1108C45.898 36.2707 45.9544 36.5749 46.0203 36.9262C46.1473 37.6084 46.3073 38.4567 47.463 38.8143C47.5885 38.8535 47.7406 38.8676 47.9005 38.8833C48.291 38.9209 48.7756 38.9679 48.9183 39.4494C49.0406 39.8634 49.0014 41.568 48.9559 41.9882C48.8304 43.1612 48.1138 43.9688 46.991 44.204L46.9753 44.2072L46.9784 44.2025ZM0.684713 43.8559L46.9455 43.8888C47.9178 43.6787 48.5388 42.973 48.647 41.9506C48.7003 41.4551 48.7175 39.8634 48.6203 39.5341C48.5435 39.2753 48.2879 39.2314 47.8739 39.1906C47.7045 39.1734 47.5289 39.1577 47.3736 39.1091C46.036 38.6951 45.8431 37.6617 45.7145 36.9779C45.6675 36.7255 45.622 36.484 45.5342 36.3773L44.0977 36.2284V34.2039H46.5284C46.5911 34.1882 46.8122 33.9373 46.8451 33.6205C46.8702 33.3712 46.7667 33.1846 46.5331 33.0654L27.0095 33.0936C26.8432 33.2551 26.8276 33.6001 26.9122 33.8589C26.9671 34.0251 27.0816 34.2039 27.24 34.2039H29.6706V36.2911L29.4746 36.2378C29.2378 36.1751 28.9524 36.2299 28.6748 36.2848C28.4835 36.3225 28.3063 36.357 28.1432 36.3523C27.8171 36.3428 25.8098 35.3204 25.5558 35.1495C24.3091 34.3121 24.8532 33.4998 25.3801 32.7125C25.5856 32.4068 25.7973 32.09 25.9478 31.7403C27.0675 29.1403 27.0675 26.6124 25.9478 24.9799C25.0336 23.647 23.4215 22.9837 21.281 23.0652C19.2988 23.1389 17.9078 23.8383 17.1457 25.1415C15.8394 27.3761 16.7145 30.7649 17.8608 32.9885C17.9376 33.1375 18.0255 33.2426 18.1117 33.3429C18.3861 33.6676 18.5226 33.9138 18.1086 34.5881C17.809 35.0758 15.819 36.0512 15.3204 36.0841C14.8876 36.1139 13.6487 35.4035 13.4872 35.3016C12.8662 34.9111 12.5604 34.5818 12.4961 34.2352C12.4224 33.8369 12.6812 33.4935 12.9822 33.0952C13.1736 32.8411 13.39 32.5526 13.5625 32.2029C14.8217 29.6515 14.9158 26.959 13.8087 25.1775C12.9477 23.7928 11.4109 23.0605 9.36292 23.0605C7.44193 23.0605 5.96628 23.7082 5.09595 24.9345C4.02019 26.4493 3.89945 28.7388 4.7635 31.2181C4.85132 31.4706 5.11948 31.9614 5.37822 32.4366C5.90983 33.4119 6.15603 33.8949 6.12153 34.1161C5.99451 34.9378 4.71175 35.5321 3.58111 36.0574C3.14202 36.2613 2.72646 36.4542 2.4834 36.6204C1.26336 37.4515 0.462034 38.8676 0.339717 40.4075C0.283263 41.1179 0.29424 43.5078 0.458897 43.7508C0.49026 43.7806 0.565532 43.812 0.631395 43.8387C0.648645 43.8465 0.667463 43.8528 0.683144 43.8606L0.684713 43.8559ZM25.0775 42.6719H13.6581L13.6769 42.4979C13.7114 42.1764 13.6895 41.8016 13.6691 41.4378C13.6456 41.0207 13.6205 40.5894 13.6785 40.2162C13.7146 39.9873 14.1568 38.9476 14.2932 38.717C14.8546 37.7605 15.852 37.3057 16.8148 36.8635C17.853 36.3883 18.8346 35.9383 19.2706 34.9127L19.3333 34.7668L19.4791 34.8311C20.8591 35.4412 22.0666 35.4459 23.6473 34.85L23.8308 34.781L23.8575 34.9754C23.9782 35.8677 25.0712 36.3146 26.0356 36.7098C26.608 36.945 27.149 37.1661 27.4329 37.4656C27.6367 37.6805 27.6367 37.8922 27.6022 38.0318C27.4595 38.5963 26.4857 39.026 26.1219 39.1436C26.0435 39.1687 25.9243 39.1844 25.7737 39.2016C25.5526 39.2283 24.9677 39.3004 24.9677 39.4556V42.2203C25.0336 42.2721 25.1794 42.3897 25.1151 42.5669L25.0775 42.6704V42.6719ZM14.0031 42.3583H24.6713C24.6604 42.3364 24.6525 42.3097 24.6525 42.2799V39.4572C24.6525 39.0244 25.2766 38.9476 25.733 38.8911C25.8506 38.877 25.9729 38.8613 26.0231 38.8456C26.4214 38.717 27.2039 38.3234 27.2964 37.9549C27.3121 37.8953 27.3184 37.8028 27.2039 37.6821C26.9656 37.4311 26.4543 37.2226 25.9149 36.9999C24.9348 36.5985 23.8339 36.1468 23.5815 35.2059C22.0525 35.7516 20.845 35.7438 19.4901 35.1793C18.9789 36.2158 17.9439 36.6894 16.9419 37.1489C16.0229 37.5691 15.0726 38.0051 14.5598 38.8754C14.4312 39.0934 14.0125 40.0876 13.9843 40.2633C13.931 40.6035 13.9545 41.0175 13.978 41.419C13.9968 41.7326 14.0157 42.0557 13.9984 42.3567L14.0031 42.3583ZM12.4318 42.6719H1.5817L1.60209 42.4963C1.64443 42.1341 1.61777 41.7028 1.59268 41.2857C1.56445 40.809 1.53309 40.315 1.60366 39.901C1.64443 39.6564 2.13056 38.6794 2.2811 38.4552C2.877 37.5676 3.80065 37.1599 4.6945 36.7662C5.72008 36.3146 6.68764 35.8865 7.10163 34.7762L7.16906 34.5943L7.33215 34.6994C8.61962 35.5274 10.1737 35.529 11.3874 34.7025L11.5803 34.5724L11.6289 34.7998C11.7998 35.5886 12.609 36.2362 14.0376 36.7239L14.2791 36.807L14.0956 36.9858C12.8003 38.2466 12.2672 39.9998 12.4177 42.5073L12.4271 42.6735L12.4318 42.6719ZM1.92983 42.3583H12.0994C11.9818 39.9543 12.4945 38.2199 13.7052 36.9372C12.4287 36.462 11.6493 35.8379 11.3859 35.0789C10.1454 35.8285 8.62432 35.8238 7.32588 35.0632C6.83191 36.1688 5.81104 36.6188 4.82309 37.0548C3.97001 37.4311 3.08871 37.8201 2.54299 38.6324C2.38931 38.8613 1.94238 39.785 1.91415 39.9559C1.84986 40.3354 1.87965 40.8105 1.90788 41.27C1.92983 41.637 1.95336 42.0149 1.9314 42.3599L1.92983 42.3583ZM46.8326 42.6406H46.8091L26.5923 42.5277L26.5547 42.5042C26.1611 42.2548 26.183 41.4002 26.2348 40.6177L26.2489 40.3715L26.3649 40.3448C27.7355 40.0374 28.7752 39.0134 29.1453 37.6036L29.1767 37.486L44.5023 37.5221L44.5368 37.6303C45.0088 39.0762 45.9246 39.9904 47.256 40.3448L47.3752 40.3762L47.372 40.5C47.3689 40.6082 47.3799 40.7557 47.3909 40.9125C47.4363 41.5586 47.5006 42.443 46.8561 42.6327L46.8342 42.639L46.8326 42.6406ZM26.6927 42.2156L46.7856 42.3285C47.1666 42.1921 47.1149 41.4676 47.0757 40.9376C47.0678 40.8247 47.06 40.7149 47.0568 40.6177C45.7302 40.2256 44.7705 39.2675 44.2734 37.8373L29.415 37.8028C28.9995 39.2283 27.9409 40.2711 26.5484 40.6255V40.6396C26.5249 40.9799 26.459 41.9882 26.6927 42.2172V42.2156ZM42.8432 36.2425H30.9252V34.2039H42.8432V36.2425ZM31.2388 35.9288H42.5296V34.5175H31.2388V35.9288ZM9.28295 34.1647C8.94422 34.1647 8.61177 34.0863 8.2856 33.9294C6.45085 33.0497 5.3892 29.8742 5.3547 28.0143C5.3155 25.8158 6.7143 24.4515 9.0979 24.3637C9.78006 24.3386 12.0727 24.3903 12.9634 26.1263C14.0078 28.1586 12.758 32.1653 11.0926 33.4527C10.4779 33.9279 9.87258 34.1662 9.28295 34.1662V34.1647ZM9.10888 24.6773C6.91816 24.7588 5.63227 26.0039 5.66833 28.0096C5.6997 29.7895 6.69862 32.8208 8.42046 33.6472C9.2014 34.022 10.0357 33.873 10.8997 33.2034C12.5808 31.9034 13.5797 28.0159 12.6827 26.269C11.8767 24.6992 9.74242 24.6538 9.10731 24.6773H9.10888ZM21.4629 34.0549C19.9323 34.0549 18.6527 32.7141 18.0286 30.4481C17.4437 28.3248 17.5252 26.73 18.2685 25.706C18.8676 24.8811 19.8963 24.4311 21.3249 24.3668C22.904 24.2962 24.0644 24.6789 24.7701 25.5068C25.5495 26.4211 25.7471 27.8293 25.3613 29.6938C24.8313 32.2452 23.2992 33.9969 21.5475 34.0533C21.5193 34.0533 21.4911 34.0533 21.4629 34.0533V34.0549ZM21.6871 24.6726C21.5742 24.6726 21.4582 24.6757 21.339 24.6804C20.0107 24.74 19.062 25.1462 18.5226 25.8895C17.8373 26.8319 17.773 28.3374 18.3312 30.3634C18.9256 32.5228 20.1237 33.7867 21.5381 33.7397C23.1424 33.6879 24.5553 32.0367 25.0555 29.6295C25.4209 27.8654 25.2453 26.5465 24.5333 25.7091C23.9453 25.0191 22.9903 24.671 21.6903 24.671L21.6871 24.6726Z" fill="white"/>
<path d="M43.5677 29.1906H43.552L29.8024 29.1137L29.7835 29.109C28.2906 28.717 27.6853 27.0563 27.7465 25.5838C27.8014 24.2822 28.4224 22.6686 29.9858 22.3157V19.7784H4.65843C4.4875 19.7784 3.61717 19.4052 3.56385 19.3801C2.37519 18.8203 1.64599 17.6896 1.61463 16.3567C1.5817 15.0191 2.28894 13.8022 3.45722 13.1812C3.46663 13.1765 4.35891 12.7217 4.50005 12.7217H29.9827V10.0276C28.3675 9.66693 27.6775 8.06897 27.7136 6.61215C27.7512 5.11455 28.598 3.40055 30.3732 3.17473C32.6407 2.88776 35.2658 3.01321 37.8063 3.13553C39.779 3.23119 41.8176 3.32841 43.6273 3.22491H43.6539L43.679 3.23119C45.9074 3.85845 45.9983 5.92215 45.8305 7.6487C45.7694 8.26969 45.4667 8.94244 45.059 9.36584C44.8457 9.58695 44.5305 9.73749 44.2514 9.87079C43.966 10.0072 43.6712 10.1484 43.6257 10.3083L43.621 22.2373C44.5807 22.6325 45.6596 23.2754 45.8227 24.7009C46.1254 27.3542 45.393 28.822 43.5849 29.189L43.5693 29.1921L43.5677 29.1906ZM29.8447 28.8001L43.5379 28.8769C45.1453 28.5429 45.7913 27.188 45.5106 24.7354C45.3617 23.4323 44.3627 22.8677 43.4062 22.4867L43.3074 22.4475L43.3152 10.2581C43.3779 9.93822 43.7355 9.76729 44.115 9.58538C44.3816 9.45836 44.6576 9.32664 44.8316 9.1463C45.1939 8.77151 45.4636 8.1709 45.5169 7.61577C45.6831 5.91745 45.5859 4.10779 43.6179 3.53855C41.7988 3.64048 39.7618 3.54168 37.7906 3.44759C35.2643 3.32528 32.6517 3.19982 30.4124 3.48366C28.8128 3.68595 28.0617 5.20394 28.0272 6.61685C27.9943 7.97645 28.6419 9.47091 30.1677 9.74063L30.2979 9.76415V13.0322H4.5173C4.39968 13.0683 3.78967 13.3584 3.60619 13.4556C2.54298 14.0201 1.90003 15.1273 1.92983 16.3457C1.95962 17.5579 2.61982 18.5851 3.69872 19.0932C3.88533 19.181 4.56121 19.4491 4.66784 19.4632H30.2995V22.5745L30.1693 22.598C28.6937 22.8567 28.1119 24.3747 28.0601 25.5963C28.0052 26.8932 28.5415 28.4441 29.8447 28.8001ZM40.0879 27.9219C38.8303 27.9219 37.5334 27.8608 36.26 27.7996C34.3406 27.7086 32.3569 27.6146 30.5817 27.7369H30.5692H30.5566C29.6487 27.66 29.2143 26.5639 29.2645 25.5728C29.3115 24.6664 29.7694 23.7569 30.6852 23.7773L43.1772 23.7647H43.1898C44.046 23.898 44.4772 24.8844 44.4615 25.7892C44.4474 26.6266 44.0397 27.649 42.9436 27.7776C42.0372 27.8843 41.0743 27.9219 40.0879 27.9219ZM32.4651 27.3652C33.7133 27.3652 35.0087 27.4264 36.2742 27.486C38.5355 27.5926 40.8736 27.7039 42.9059 27.4656C43.8013 27.3605 44.1338 26.4933 44.1479 25.7829C44.162 25.0177 43.8249 24.1881 43.1537 24.0768L30.6821 24.0893C30.6821 24.0893 30.6695 24.0893 30.6633 24.0893C29.9686 24.0893 29.6173 24.8389 29.5797 25.5885C29.5358 26.429 29.8698 27.3542 30.5723 27.4232C31.1839 27.3809 31.8174 27.3652 32.4651 27.3652ZM42.0591 22.5996H31.5524V9.89745H42.0591V22.5996ZM31.8661 22.2859H41.7455V10.2111H31.8661V22.2859ZM30.2979 18.2087H4.97206C4.85916 18.2087 4.16132 17.8668 4.12996 17.8496C3.33804 17.3744 2.98991 16.479 3.24238 15.5711C3.48074 14.7101 4.17701 14.1315 4.97206 14.1315H30.2979V18.2087ZM4.99245 17.8951H29.9858V14.4451H4.97206C4.21778 14.4451 3.71126 15.052 3.54504 15.6542C3.37567 16.2658 3.48231 17.0922 4.29305 17.5799C4.37616 17.6301 4.88268 17.8574 4.99245 17.8951ZM40.2432 8.79032C39.0075 8.79032 37.7357 8.73073 36.4859 8.67271C34.4833 8.57862 32.4118 8.4814 30.5551 8.63508H30.5441H30.5331C29.8776 8.5943 29.4244 8.01252 29.3194 7.07789C29.2127 6.12131 29.5216 4.96401 30.2085 4.76328L30.2524 4.75701L43.2384 4.73349H43.2509C44.1165 4.86992 44.4929 5.85786 44.4757 6.71878C44.46 7.60009 44.0272 8.53785 43.1004 8.64605C42.1924 8.75269 41.2296 8.79032 40.2447 8.79032H40.2432ZM32.7395 8.2399C33.9768 8.2399 35.2533 8.29949 36.5031 8.35751C38.7362 8.46258 41.0445 8.57078 43.0643 8.33242C43.8045 8.24617 44.1495 7.45582 44.1636 6.71094C44.1777 5.96293 43.8562 5.15375 43.2148 5.04555L30.2775 5.06907C29.8321 5.22275 29.5311 6.13386 29.633 7.04182C29.6644 7.3288 29.8243 8.26656 30.5425 8.31988C31.2513 8.26185 31.9884 8.2399 32.7395 8.2399Z" fill="white"/>
</g>
<defs>
<clipPath id="clip0_108_50">
<rect width="48" height="49" fill="white" transform="translate(49) rotate(90)"/>
</clipPath>
</defs>
</svg>
