<svg width="49" height="48" viewBox="0 0 49 48" fill="none" xmlns="http://www.w3.org/2000/svg">
<g clip-path="url(#clip0_108_42)">
<path d="M7.84155 9.68258H19.5605C19.7284 9.68258 21.478 8.18528 22.3694 7.87696C29.1664 5.52487 32.6802 9.28379 38.7464 9.68996C39.5676 9.74535 40.4221 9.63642 41.2452 9.68073C40.8853 8.65053 40.8724 7.37664 42.1218 7.14401C43.2125 6.93908 46.623 6.9797 47.7967 7.0997C48.2433 7.14586 48.9428 7.23078 49 7.74219L48.9077 29.4391C48.6604 29.7142 48.3319 29.7696 47.9868 29.8102C47.1508 29.9043 41.9612 29.8951 41.5349 29.6053C41.3504 29.4797 41.2692 29.2877 41.2378 29.0754H40.9757L39.9496 30.2773C40.782 31.9703 40.7174 34.1359 39.2059 35.4283C38.6818 35.8751 37.7258 35.9914 37.4637 36.2701C37.2386 36.5083 37.1703 37.1822 36.9396 37.592C35.9467 39.3681 33.7893 39.6598 32.1247 38.6592C31.608 39.946 30.2035 40.7565 28.8157 40.69C28.0794 40.6549 26.8115 39.8278 26.5771 39.8426C26.4313 39.8518 25.6267 40.5128 25.2465 40.6642C23.3825 41.399 21.0609 40.8654 19.4867 39.6709L7.75481 29.2896C7.5352 29.4096 7.36541 29.6533 7.11627 29.729C6.3836 29.9487 1.86027 29.921 0.920907 29.8139C0.573952 29.7751 0.247298 29.7179 0 29.4428L0.0719747 7.3951C0.191932 7.22709 1.18851 7.11078 1.46902 7.09232C2.56156 7.01662 6.18982 6.93908 7.07382 7.22155C8.15344 7.5668 7.38571 8.78346 7.84155 9.68442V9.68258ZM5.81149 9.12871H2.02821L1.75138 9.40564V27.4987L2.02821 27.7756H5.81149V9.12871ZM38.9752 28.4606L41.0625 26.0236L41.0699 11.8002C39.2816 11.623 37.473 11.5971 35.7031 11.2593C33.0382 10.7515 30.8421 9.3041 28.0591 9.12132C23.222 8.80377 21.4503 10.3546 18.3554 13.6483C17.0931 14.9905 14.8969 17.0047 17.082 18.6257C18.0693 19.3587 18.8721 19.0633 19.8281 18.4411C20.7841 17.8189 24.1374 14.3609 24.9291 14.2926C25.0896 14.2797 25.2354 14.2963 25.372 14.3886C28.4263 17.6786 31.4917 20.9501 34.5146 24.266C35.6016 25.4586 36.8806 27.3104 38.0174 28.335C38.3256 28.612 38.6356 28.7597 38.9789 28.4624L38.9752 28.4606ZM43.0907 9.12871V27.4987L43.3675 27.7756H46.874L47.1508 27.4987V9.40564L46.874 9.12871H43.0907ZM16.9768 11.5288H8.11838C8.087 11.5288 7.79357 11.8131 7.75297 11.9017L7.79726 26.4371L9.31611 28.0563C13.1197 30.8385 16.5523 35.0239 20.3042 37.7416C21.299 38.4635 22.5355 39.0967 23.8033 39.0506C24.1761 39.0376 25.0047 38.7976 24.7371 38.2955L19.8632 33.9199C20.0699 32.1457 20.9871 32.4355 22.1405 33.3199C24.1964 34.8929 26.0253 37.0511 28.1938 38.5244C29.9249 39.0284 31.154 38.0241 29.6204 36.5434C27.8671 34.8504 25.5141 33.438 23.8033 31.6472C23.521 30.5838 24.381 29.8323 25.3646 30.4638C27.9262 32.1069 30.7886 35.6775 33.3649 37.0437C34.8893 37.8524 35.7899 36.4529 35.1642 35.059L27.319 27.9547C26.6472 27.2144 27.2987 26.1583 28.2233 26.2931L36.8178 33.9568C38.2961 34.6362 38.8996 32.4872 38.1909 31.4773L25.1358 17.0029C24.8774 16.8496 24.763 16.942 24.536 17.0472C23.5985 17.4811 22.0888 19.2405 21.1126 19.9144C19.2357 21.2104 17.0026 21.5132 15.2882 19.7722C12.531 16.9715 15.3472 13.8606 17.4363 11.8057C17.4603 11.7522 17.0248 11.538 16.9768 11.5307V11.5288Z" fill="white"/>
</g>
<defs>
<clipPath id="clip0_108_42">
<rect width="48" height="49" fill="white" transform="translate(49) rotate(90)"/>
</clipPath>
</defs>
</svg>
