<svg width="49" height="48" viewBox="0 0 49 48" fill="none" xmlns="http://www.w3.org/2000/svg">
<g clip-path="url(#clip0_108_51)">
<path d="M39.5228 5.48215L44.0518 13.4235C52.1269 18.3819 50.0722 30.8224 40.5915 32.4774C30.7755 34.1902 24.4676 22.1312 31.5303 15.0752C32.0786 14.5285 33.1655 13.9339 33.5949 13.4235C34.3398 12.5349 36.6439 8.42547 37.1774 7.26103C37.3029 6.98684 37.4714 6.75891 37.4202 6.43022C34.1036 5.75964 30.7441 5.14851 27.368 4.96683C27.0839 6.07016 26.3324 6.58218 25.3563 7.03474L25.3711 24.8532C25.3133 25.8938 23.9044 25.978 23.7145 25.0068L23.7178 7.03474C22.7086 6.58383 21.9967 6.0173 21.6267 4.93214C18.1995 5.09896 14.8399 5.75799 11.4887 6.43022L15.4775 13.4235C23.1397 18.0367 21.7523 29.9685 12.9752 32.2792C1.35057 35.3381 -5.08937 19.6784 5.02228 13.4218L9.7709 5.28725C13.5632 4.13107 17.5041 3.59757 21.45 3.25732C21.9604 2.75851 21.967 2.24319 22.5682 1.73281C23.7393 0.740146 25.4686 0.748405 26.6 1.80384C27.117 2.28613 27.1335 2.82788 27.629 3.25237C31.6228 3.76274 35.7371 4.05674 39.5228 5.4805V5.48215ZM24.3322 2.65611C22.6194 2.93194 22.882 5.6721 24.7699 5.4326C26.4612 5.21788 26.1276 2.36541 24.3322 2.65611ZM12.9752 12.3714L10.2499 7.75158L7.5246 12.3714C9.39762 12.0113 11.1022 12.0113 12.9752 12.3714ZM41.5494 12.3714L38.8242 7.75158L36.0989 12.3714C37.9719 12.0113 39.6764 12.0113 41.5494 12.3714ZM9.63876 13.7456C-1.42096 14.4409 -0.603377 31.3212 10.42 31.047C21.9819 30.7596 21.3377 13.0089 9.63876 13.7456ZM45.8438 27.2382C49.5502 22.4136 46.5541 15.2106 40.7302 13.9355C35.3952 12.7678 30.4253 16.7137 30.1528 22.118C30.1197 22.3905 30.3526 23.8407 30.4005 24.0918C30.4484 24.3428 31.3123 26.9261 31.8045 27.2399C31.8045 27.2399 31.9647 24.1909 32.0142 24.1446C32.6435 23.8209 36.264 23.6821 36.264 24.5146V30.7084H36.5944V26.0011C36.5944 25.172 41.0539 25.172 41.0539 26.0011V30.7084H41.3843V22.5326C41.3843 22.4682 41.5759 22.1609 41.6618 22.1081C42.1259 21.8207 45.3384 21.7563 45.8438 22.3674V27.2399V27.2382ZM44.1922 23.6045H43.036V29.8809L44.1922 29.1377V23.6045ZM34.6123 25.5865H33.4562V29.1377L34.6123 29.8809V25.5865ZM39.4022 27.0731H38.2461V31.0371H39.4022V27.0731Z" fill="white"/>
<path d="M13.8836 47.7192C13.1371 47.5095 13.5533 45.1707 13.6821 44.5447C14.427 40.8944 17.4529 37.4622 21.0701 36.4861C21.1775 36.05 20.7481 36.1409 20.4854 35.8369C16.0127 30.6705 22.0463 23.773 27.4985 27.1689C30.6285 29.1179 30.9588 33.1034 28.5936 35.8369C28.331 36.1409 27.9015 36.05 28.0089 36.4861C31.4279 37.4391 34.1994 40.4039 35.1541 43.7948C35.3143 44.3646 36.0923 47.7192 35.1937 47.7192H13.8836ZM24.1704 27.9386C19.0898 28.4721 19.5638 36.2466 24.9483 35.827C30.3328 35.4075 29.2741 27.4018 24.1704 27.9386ZM33.9517 46.0675C32.485 34.727 16.5891 34.727 15.1224 46.0675H33.9517Z" fill="white"/>
<path d="M9.95092 46.0809L38.8308 46.0413C40.0646 46.2031 39.764 47.8746 38.5004 47.7078L9.87329 47.5806C9.22913 47.1875 9.28364 46.4145 9.95092 46.0809Z" fill="white"/>
<path d="M11.1946 18.448C11.3317 18.6396 12.2616 18.9204 12.6795 19.6901C13.5648 21.3186 12.0832 22.2766 11.4209 21.1138C11.2805 20.8694 11.3284 20.5671 11.0922 20.2863C10.5042 19.591 9.00282 19.9841 9.24232 20.9718C9.39923 21.6259 10.7553 21.5598 11.297 21.7349C12.7505 22.204 13.4872 23.958 12.5705 25.2645C12.2269 25.7534 11.2574 26.1994 11.1963 26.2853C10.9353 26.6487 11.2541 27.9006 10.0962 27.7404C9.27535 27.6265 9.65524 26.799 9.42896 26.4108C9.32655 26.2357 8.82609 26.1201 8.59981 25.9186C7.92757 25.3157 6.77634 23.7499 8.07292 23.2297C9.08375 22.825 9.06063 24.0654 9.41574 24.442C10.0302 25.0928 11.5018 24.7723 11.2607 23.7615C11.1219 23.1834 9.66185 23.1818 9.08871 22.9505C7.53447 22.3245 7.00923 20.6431 8.101 19.3069C8.43629 18.8956 9.3695 18.4249 9.42896 18.3225C9.72791 17.8105 9.26709 16.5023 10.7619 17.1498C11.1599 17.4553 11.041 18.2349 11.1946 18.4497V18.448Z" fill="white"/>
</g>
<defs>
<clipPath id="clip0_108_51">
<rect width="48" height="49" fill="white" transform="translate(49) rotate(90)"/>
</clipPath>
</defs>
</svg>
