<svg width="49" height="48" viewBox="0 0 49 48" fill="none" xmlns="http://www.w3.org/2000/svg">
<g clip-path="url(#clip0_108_41)">
<path d="M5.49147 37.0151L5.72445 36.4965L5.78758 2.13812C6.16937 1.05888 7.05922 0.343396 8.19709 0.188574C16.0269 0.630492 24.5 -0.397644 32.2531 0.182561C33.1234 0.247196 33.5172 0.418552 34.1966 0.944645C35.369 1.84953 39.0276 5.4946 39.8995 6.66553C41.2312 8.45575 40.3098 11.698 40.6044 13.852C50.6182 16.7515 50.4694 30.7681 40.5819 33.8074L40.5939 45.3634C40.5112 46.9868 39.4545 48.1487 37.8131 48.2945L2.54985 48.2224C0.0170912 47.5144 -0.818645 44.6495 0.91145 42.6518C-0.487958 41.0224 -0.277521 38.4656 1.66602 37.3999C1.81182 37.3202 2.40405 37.0151 2.48372 37.0151H5.48996H5.49147ZM32.0216 2.14263H8.04678C7.98515 2.14263 7.52068 2.74088 7.52068 2.81904V37.0151H14.5102C15.5068 37.0151 16.7934 38.7317 16.9543 39.6801C17.2309 41.308 16.0855 42.1603 16.087 42.6533C16.087 42.8622 16.5364 43.2651 16.6747 43.5687C17.0851 44.4751 17.1016 45.4266 16.6912 46.333H38.1107C38.1694 46.333 38.4489 46.1586 38.497 46.0804L38.6368 34.1577C29.549 34.8085 23.7995 24.2325 29.7714 17.1017C31.1047 15.5084 34.3454 13.4146 36.4558 13.4146H38.6353V8.60456H34.0508C33.9606 8.60456 32.9956 7.97626 32.8633 7.83797C32.6138 7.57943 32.0216 6.43706 32.0216 6.12441V2.14263ZM37.2825 6.80232L33.9757 3.49544V6.12591C33.9757 6.27622 34.5017 6.80232 34.6521 6.80232H37.2825ZM43.6933 17.6774C35.363 9.54702 23.3215 22.9143 32.3207 30.3277C40.6405 37.1819 51.3202 25.1194 43.6933 17.6774ZM2.30785 41.326C2.50927 41.5109 2.9557 41.6477 3.23377 41.6793C6.53764 42.0491 10.5224 41.4027 13.8999 41.6673C15.603 41.1908 15.4391 39.0263 13.6083 38.8203C10.3992 38.4581 6.53012 39.0789 3.25031 38.8339C2.0433 38.8534 1.48264 40.573 2.30635 41.3276L2.30785 41.326ZM2.81891 43.6604C1.59387 43.9355 1.62844 46.1496 2.94668 46.3254C6.40837 46.0459 10.5344 46.7298 13.9135 46.3375C15.4902 46.1541 15.4046 43.8498 14.0518 43.6379L2.81891 43.6604Z" fill="white"/>
<path d="M10.1842 5.33081H29.5113C29.8691 5.51419 30.1472 5.88546 30.2103 6.28379C30.3155 6.94817 30.3155 11.0818 30.1517 11.6199C30.0495 11.9581 29.6301 12.391 29.2498 12.3714L10.0684 12.2978C9.70919 12.1685 9.54385 11.8965 9.48522 11.5282C9.32439 10.5091 9.36948 7.51034 9.46869 6.42057C9.51829 5.87795 9.58443 5.48714 10.1842 5.33231V5.33081ZM28.2637 7.2533H11.2784V10.4099H28.2637V7.2533Z" fill="white"/>
<path d="M19.6539 36.1447L35.7087 36.1086C37.1608 36.277 37.1608 37.9019 35.7087 38.0687C30.7529 37.6554 24.9238 38.6098 20.0733 38.0657C18.5311 37.8929 18.5882 36.3792 19.6539 36.1432V36.1447Z" fill="white"/>
<path d="M19.8072 41.26L35.7073 41.2209C37.1593 41.3893 37.1593 43.0142 35.7073 43.181H19.9185C18.6333 43.1164 18.5145 41.4269 19.8072 41.26Z" fill="white"/>
<path d="M25.2214 15.8555C25.7595 16.3966 25.2921 17.5616 24.4338 17.4774C20.0146 17.0956 14.7672 17.9749 10.4472 17.4774C8.85994 17.294 9.26127 15.4512 10.7509 15.5188C15.0348 15.7909 19.7531 15.1596 23.9859 15.5128C24.2775 15.5368 25.0396 15.6721 25.2214 15.8555Z" fill="white"/>
<path d="M25.2214 32.6198C25.0396 32.8032 24.2775 32.937 23.9859 32.9625C19.7546 33.3158 15.0363 32.6845 10.7509 32.9565C9.26127 33.0242 8.85994 31.1813 10.4472 30.998C14.7657 30.5004 20.0146 31.3798 24.4338 30.998C25.2921 30.9138 25.7595 32.0787 25.2214 32.6198Z" fill="white"/>
<path d="M25.2215 20.9678C25.5371 21.2834 25.4905 22.2018 25.0411 22.4438L10.2939 22.5926C9.13804 22.4438 9.19516 20.8926 10.2939 20.7739C14.8725 21.079 19.9154 20.3936 24.4368 20.7754C24.6698 20.7949 25.0561 20.8009 25.2215 20.9678Z" fill="white"/>
<path d="M25.2215 27.5094C25.0561 27.6747 24.6698 27.6823 24.4368 27.7018C19.9154 28.0836 14.871 27.3982 10.2939 27.7033C9.19516 27.5846 9.13804 26.0318 10.2939 25.8845L25.0411 26.0333C25.4905 26.2768 25.5371 27.1937 25.2215 27.5094Z" fill="white"/>
<path d="M33.7111 27.8101C33.4857 27.5846 33.4285 26.8286 33.6675 26.5595L39.7401 20.3817C40.7202 19.2393 42.4052 19.0559 41.8009 21.0145L35.0384 27.7785C34.7919 28.1077 33.9576 28.0551 33.7126 27.8101H33.7111Z" fill="white"/>
<path d="M40.391 25.4785C41.4808 25.4289 41.7393 27.3168 40.5037 27.392C39.2682 27.4671 39.1073 25.5356 40.391 25.4785Z" fill="white"/>
<path d="M35.7433 21.7976C35.0428 22.4981 33.4706 21.5105 34.3574 20.4854C35.2563 19.4452 36.5279 21.013 35.7433 21.7976Z" fill="white"/>
</g>
<defs>
<clipPath id="clip0_108_41">
<rect width="48" height="49" fill="white" transform="translate(49) rotate(90)"/>
</clipPath>
</defs>
</svg>
