<svg width="64" height="64" viewBox="0 0 64 64" fill="none" xmlns="http://www.w3.org/2000/svg">
<path d="M62.0409 42.687C61.5514 39.4293 59.035 38.948 54.8634 39.216L54.2623 39.2546L54.3272 38.6555C54.4836 37.2074 54.7273 32.4245 51.3356 31.738C50.3059 31.5288 45.129 31.5918 44.2333 31.8233C43.3255 32.0589 41.5301 33.7527 41.5301 34.5448V39.216H36.4527V8.37167C36.3267 8.09546 35.3437 7.541 35.031 7.53288H31.4565L31.3834 7.11043C31.2798 6.49708 31.3265 5.63798 31.3752 4.73013C31.4808 2.79462 31.6128 0.389947 30.2582 0.0649911L7.33663 0.0121858L7.28992 0C7.02183 0.0142168 6.31912 0.609292 6.18913 0.879411V7.53085H2.33029C1.97284 7.53085 1.17873 8.13608 1 8.52399L1.09749 63.2953C1.35745 63.8558 2.01752 63.9878 2.53542 64H58.5801C60.5644 63.8842 61.8622 62.5783 62.051 60.5027C62.3171 57.576 62.1952 54.3671 62.0754 51.2658C61.9657 48.4082 61.852 45.4532 62.0389 42.687H62.0409ZM8.8294 2.85961H28.5298V7.53085H8.8294V2.85961ZM10.4542 61.1485H3.75197V50.5875H10.4542V61.1485ZM24.0617 61.1485H13.2975V50.5875H24.0617V61.1485ZM33.6073 61.1485H26.9051V50.5875H33.6073V61.1485ZM33.8104 47.7441H3.75197V10.3742H33.8104V47.7441ZM44.3714 35.3552C44.3714 34.9266 45.066 34.4961 45.0741 34.492C45.7972 34.1528 50.4278 34.0614 51.3377 35.0018L51.4798 35.15V39.214H44.3714V35.3552ZM59.1975 61.1485H37.0518L36.4506 60.5473V50.6768L46.2359 52.6794L46.2785 53.0449C46.4308 54.359 47.2716 55.0008 48.0292 54.9683C48.7807 54.9297 49.2579 54.231 49.2722 53.1465L49.2782 52.7383L59.1995 50.6748V61.1485H59.1975ZM59.1975 47.214L59.1731 47.2892C59.0107 47.7969 58.4176 48.0325 53.3422 49.0195C51.9733 49.2856 50.5578 49.5618 50.1881 49.702L50.052 49.7548L49.4021 49.6248L49.2945 49.3912C48.9797 48.7149 48.4212 48.3209 47.8261 48.3432C47.231 48.3635 46.7192 48.7779 46.4552 49.4562L46.2968 49.8624L36.7065 47.74L36.6415 47.4171C36.3267 45.8614 36.3349 44.0071 36.6639 42.4595L36.7492 42.0574H58.5943L59.1955 42.6585V47.212L59.1975 47.214Z" fill="#FD7E14"/>
<path d="M11.2403 18.8314C11.616 18.5979 12.1826 18.0536 11.7602 17.0157C11.4901 16.3537 10.9092 16.2013 10.4685 16.1912C9.64393 16.1729 8.73202 16.6563 8.44565 17.2717C8.24865 17.6941 8.35629 18.1429 8.76655 18.608C9.36771 19.2884 10.5294 19.2722 11.2403 18.8314Z" fill="#FD7E14"/>
<path d="M11.2403 34.0634C11.616 33.8298 12.1826 33.2855 11.7602 32.2477C11.4901 31.5856 10.9092 31.4333 10.4685 31.4231C9.64393 31.4048 8.73202 31.8882 8.44565 32.5036C8.24865 32.926 8.35629 33.3749 8.76655 33.84C9.36771 34.5203 10.5294 34.5041 11.2403 34.0634Z" fill="#FD7E14"/>
<path d="M19.2442 19.071C19.8088 18.9552 20.2089 18.6262 20.3693 18.1408C20.5298 17.6595 20.4222 17.1274 20.0891 16.7496C19.6768 16.2845 18.9761 16.1241 18.119 16.3008C17.1827 16.4937 16.8964 17.2269 17.0264 17.8687C17.1828 18.6323 17.9444 19.335 19.2442 19.069V19.071Z" fill="#FD7E14"/>
<path d="M26.1475 18.8354C26.8441 19.2679 27.9794 19.3045 28.5948 18.6079C29.0091 18.1387 29.1188 17.6899 28.9258 17.2735C28.6476 16.6785 27.7682 16.2073 26.9477 16.2073C26.9314 16.2073 26.9131 16.2073 26.8969 16.2073C26.4521 16.2174 25.8672 16.3677 25.6032 17.0156C25.1848 18.0433 25.7657 18.5957 26.1495 18.8354H26.1475Z" fill="#FD7E14"/>
<path d="M19.2442 34.3034C19.8088 34.1877 20.2089 33.8587 20.3693 33.3732C20.5298 32.8919 20.4222 32.3598 20.0891 31.982C19.6768 31.5169 18.9761 31.3565 18.119 31.5332C17.1827 31.7261 16.8964 32.4593 17.0264 33.1011C17.1828 33.8647 17.9444 34.5675 19.2442 34.3014V34.3034Z" fill="#FD7E14"/>
<path d="M26.1475 34.0673C26.8441 34.4999 27.9794 34.5364 28.5948 33.8398C29.0091 33.3707 29.1188 32.9218 28.9258 32.5055C28.6476 31.9104 27.7682 31.4392 26.9477 31.4392C26.9314 31.4392 26.9131 31.4392 26.8969 31.4392C26.4521 31.4494 25.8672 31.5997 25.6032 32.2475C25.1848 33.2752 25.7657 33.8276 26.1495 34.0673H26.1475Z" fill="#FD7E14"/>
<path d="M10.3261 23.7886C9.81028 23.7886 9.28222 23.9896 8.90243 24.3227C8.55107 24.6314 8.07583 25.2834 8.82525 26.1892C9.32894 26.7985 10.0235 26.7721 10.3911 26.701C11.102 26.5669 11.7275 26.0836 11.9103 25.5271C12.0464 25.1128 11.9225 24.6964 11.5447 24.2902C11.2177 23.9409 10.777 23.7886 10.3282 23.7886H10.3261Z" fill="#FD7E14"/>
<path d="M18.771 23.7969C18.6796 23.7969 18.5862 23.803 18.4867 23.8131C17.7839 23.8923 17.2904 24.2295 17.0975 24.7636C16.9147 25.2653 17.0365 25.84 17.4062 26.23C17.8733 26.7215 18.6369 26.8352 19.559 26.5529C20.2942 26.3275 20.4973 25.6004 20.3775 25.0195C20.2556 24.4326 19.7621 23.7969 18.773 23.7969H18.771Z" fill="#FD7E14"/>
<path d="M27.2422 23.8111C27.1651 23.8111 27.0879 23.8152 27.0087 23.8213C26.0622 23.9005 25.5687 24.589 25.4997 25.2369C25.4469 25.7324 25.6378 26.3397 26.3344 26.5529C27.3235 26.8576 28.1115 26.7317 28.5543 26.1995C28.9158 25.7669 28.9808 25.1028 28.7127 24.589C28.4486 24.0812 27.9307 23.8091 27.2422 23.8091V23.8111Z" fill="#FD7E14"/>
<path d="M10.3261 39.021C9.81028 39.021 9.28222 39.2221 8.90243 39.5551C8.55107 39.8638 8.07583 40.5158 8.82525 41.4216C9.32894 42.0309 10.0235 42.0045 10.3911 41.9334C11.102 41.7994 11.7275 41.316 11.9103 40.7595C12.0464 40.3452 11.9225 39.9288 11.5447 39.5226C11.2177 39.1733 10.777 39.021 10.3282 39.021H10.3261Z" fill="#FD7E14"/>
<path d="M18.771 39.0293C18.6796 39.0293 18.5862 39.0354 18.4867 39.0455C17.7839 39.1248 17.2904 39.4619 17.0975 39.996C16.9147 40.4977 17.0365 41.0725 17.4062 41.4624C17.8733 41.9539 18.6369 42.0676 19.559 41.7853C20.2942 41.5599 20.4973 40.8328 20.3775 40.2519C20.2556 39.665 19.7621 39.0293 18.773 39.0293H18.771Z" fill="#FD7E14"/>
<path d="M27.2422 39.0435C27.1651 39.0435 27.0879 39.0476 27.0087 39.0537C26.0622 39.1329 25.5687 39.8214 25.4997 40.4693C25.4469 40.9648 25.6378 41.5721 26.3344 41.7853C27.3235 42.088 28.1115 41.9641 28.5543 41.432C28.9158 40.9994 28.9808 40.3352 28.7127 39.8214C28.4486 39.3137 27.9307 39.0415 27.2422 39.0415V39.0435Z" fill="#FD7E14"/>
</svg>
