<svg width="64" height="64" viewBox="0 0 64 64" fill="none" xmlns="http://www.w3.org/2000/svg">
<path d="M30.1486 7.26249C46.4614 6.19328 56.1849 23.808 48.7487 37.8126C46.1281 42.7477 40.3313 45.6492 39.8386 51.5446C39.5975 54.4314 40.3187 58.7334 39.7883 61.3478C39.5891 62.331 38.2096 63.6371 37.2012 63.7923C35.4045 64.069 27.4944 64.069 25.6978 63.7923C24.4986 63.6078 23.2029 62.1843 23.0583 60.9809C22.7186 58.1548 23.2889 54.6621 23.0709 51.7437C22.6516 46.1377 18.2196 43.9343 15.3411 39.7665C6.47083 26.9171 14.0643 8.31493 30.1486 7.26249ZM34.5932 47.0329H38.891C40.9791 43.2257 45.0316 40.5317 47.0002 36.693C52.3484 26.263 47.5285 12.7532 35.8133 9.85795C20.0288 5.95638 8.60087 22.8185 15.8967 36.693C17.9428 40.5841 21.9325 43.1544 23.9011 47.0329H28.3037V49.1294H24.7397C25.6978 50.9387 24.6327 60.6643 25.4189 61.4484C25.746 61.6853 26.1317 61.6832 26.5133 61.7168C29.1339 61.9369 33.5281 61.8992 36.1739 61.7168C37.0565 61.656 37.5765 61.7734 37.719 60.7524C38.2222 57.1108 37.1257 52.7962 38.1572 49.1294H34.5932V47.0329Z" fill="#FD7E14"/>
<path d="M24.2156 40.7435C22.857 40.5528 21.8004 39.4605 21.6138 38.1041C21.5467 37.6177 21.7082 36.3933 21.5614 36.1627C21.5027 36.0705 20.1106 35.4101 19.7081 34.9761C17.7395 32.8503 17.8527 28.2191 20.7522 26.8983C20.4146 25.9172 19.6704 25.3742 19.5173 24.2651C19.0184 20.6654 20.9157 17.5983 24.7418 17.68C24.5363 15.594 25.2952 13.7282 27.5699 13.485C29.0564 13.3256 34.9496 13.2963 36.1781 13.6841C37.9329 14.2376 38.3669 16.0301 38.1593 17.6779C43.1364 17.6339 44.9331 23.1246 42.1448 26.7851C45.7046 28.8543 45.1679 35.1648 41.0902 36.1313C41.9456 37.777 40.6248 40.7414 38.6813 40.7414H32.4967V51.4336C32.4967 51.5824 34.1487 51.9996 34.503 53.5154C34.9307 55.3477 34.0481 56.6161 32.4946 57.4526L32.3772 59.6141H30.4002L30.4044 57.4526C28.3373 56.484 27.4777 53.9598 29.1654 52.1925C29.4819 51.8612 30.4002 51.5069 30.4002 51.4357V40.7435C28.4777 40.5507 26.0751 41.0056 24.2156 40.7435ZM30.4002 15.5856H27.3603C26.551 15.5856 26.5385 18.309 28.3037 17.6821V19.7786H23.7963C23.6306 19.7786 22.6432 20.3594 22.4524 20.5313C20.6788 22.1519 21.4063 25.7725 23.9996 26.0702C27.0249 26.4182 26.8634 23.6005 24.1086 23.9716V21.873C27.5657 21.1497 29.9704 25.5209 26.8215 27.6258C25.2303 28.6887 23.6558 27.739 22.0121 28.477C20.1882 29.2946 19.9932 32.4834 21.4 33.7056C22.8067 34.9279 27.2764 34.8084 26.0101 32.8691C25.442 31.997 23.9724 32.4645 23.0604 32.3597V30.2611C24.595 30.2946 26.224 29.9445 27.3896 31.1731C29.0396 32.9111 28.3226 35.8524 26.0039 36.4541C25.3833 36.6156 24.7711 36.4457 24.2554 36.5925C23.2742 36.8713 23.725 38.6471 24.2135 38.6471H30.3981V15.5856H30.4002ZM35.5366 15.5856H32.4967V38.6471H38.6813C39.1719 38.6471 39.6227 36.8692 38.6394 36.5925C37.262 36.2025 36.7547 36.907 35.4255 35.4038C34.3123 34.1459 34.2515 32.8251 35.3228 31.5148C36.6121 29.9361 37.9895 30.2506 39.8365 30.2611V32.3597C39.1153 32.4435 37.1383 32.0662 36.828 32.8272C36.0041 34.8482 38.9895 34.6532 40.26 34.3555C42.9225 33.7329 43.2831 29.2715 40.5787 28.3638C39.0629 27.8543 37.6331 28.5923 36.2012 27.7097C32.8028 25.6132 35.2724 21.2189 38.7883 21.873V23.9716C36.8301 23.263 35.7693 25.7893 37.6457 26.0471C40.3942 26.4245 42.128 24.3133 41.1573 21.7053C40.9036 21.0218 39.7988 19.7786 39.1006 19.7786H34.5932V17.6821C36.1656 18.2482 36.5366 15.8666 35.5366 15.5856ZM32.2346 53.5846C30.8027 52.1527 29.3058 55.4924 31.5386 55.4064C32.5156 55.3687 32.786 54.1359 32.2346 53.5846Z" fill="#FD7E14"/>
<path d="M6.37111 26.255L5.49269 26.2586C4.6683 26.2621 4.0028 26.9332 4.00625 27.7576C4.00971 28.582 4.6808 29.2475 5.50519 29.244L6.38362 29.2403C7.20801 29.2369 7.87351 28.5658 7.87005 27.7414C7.8666 26.917 7.1955 26.2515 6.37111 26.255Z" fill="#FD7E14"/>
<path d="M10.4515 13.8059L9.68896 13.3698C8.97329 12.9606 8.0614 13.2091 7.6522 13.9247C7.24299 14.6404 7.49143 15.5523 8.2071 15.9615L8.96968 16.3975C9.68535 16.8067 10.5972 16.5583 11.0064 15.8426C11.4156 15.127 11.1672 14.2151 10.4515 13.8059Z" fill="#FD7E14"/>
<path d="M20.2064 5.06313L19.764 4.30423C19.3488 3.59201 18.4349 3.35122 17.7227 3.76641C17.0105 4.18159 16.7697 5.09553 17.1849 5.80775L17.6273 6.56664C18.0425 7.27886 18.9564 7.51965 19.6686 7.10446C20.3808 6.68928 20.6216 5.77534 20.2064 5.06313Z" fill="#FD7E14"/>
<path d="M33.0289 2.37111L33.0252 1.49269C33.0218 0.668299 32.3507 0.00279938 31.5263 0.0062526C30.7019 0.00970581 30.0364 0.680804 30.0399 1.50519L30.0435 2.38362C30.047 3.208 30.7181 3.8735 31.5425 3.87005C32.3669 3.8666 33.0324 3.1955 33.0289 2.37111Z" fill="#FD7E14"/>
<path d="M45.4772 6.44903L45.9132 5.68646C46.3224 4.97079 46.074 4.0589 45.3583 3.6497C44.6427 3.24049 43.7308 3.48893 43.3216 4.2046L42.8856 4.96717C42.4764 5.68284 42.7248 6.59473 43.4405 7.00394C44.1561 7.41314 45.068 7.1647 45.4772 6.44903Z" fill="#FD7E14"/>
<path d="M54.2196 16.2069L54.9785 15.7645C55.6908 15.3493 55.9316 14.4353 55.5164 13.7231C55.1012 13.0109 54.1872 12.7701 53.475 13.1853L52.7161 13.6277C52.0039 14.0429 51.7631 14.9568 52.1783 15.669C52.5935 16.3812 53.5074 16.622 54.2196 16.2069Z" fill="#FD7E14"/>
<path d="M56.9129 29.0275L57.7913 29.0238C58.6157 29.0204 59.2812 28.3493 59.2777 27.5249C59.2743 26.7005 58.6032 26.035 57.7788 26.0385L56.9004 26.0421C56.076 26.0456 55.4105 26.7167 55.4139 27.5411C55.4174 28.3655 56.0885 29.031 56.9129 29.0275Z" fill="#FD7E14"/>
</svg>
