<svg width="64" height="64" viewBox="0 0 64 64" fill="none" xmlns="http://www.w3.org/2000/svg">
<g clip-path="url(#clip0_119_305)">
<path d="M57.8039 45.9628V48.2158L59.5654 48.4002C60.1798 48.8959 59.5264 51.2226 61.9372 51.9682C62.5435 52.1566 63.4938 51.9518 63.7027 52.6605C63.8461 53.1459 63.8093 55.2986 63.7437 55.8966C63.5921 57.314 62.736 58.3197 61.3391 58.6126L0.85335 58.5696C0.720216 58.5102 0.550214 58.461 0.449852 58.3586C0.14262 58.0473 0.187681 54.5489 0.242982 53.8402C0.402743 51.8084 1.44323 49.8892 3.13096 48.7402C4.2329 47.9885 7.58173 46.989 7.79679 45.6085C7.86438 45.1743 6.31593 42.741 6.03123 41.9217C4.13254 36.4796 5.70761 30.9965 12.2332 30.9965C19.4593 30.9965 20.6043 37.7556 17.9027 43.2325C17.024 45.0145 15.369 45.5306 17.7306 47.0176C18.1505 47.2819 19.5761 48.0377 20.0021 48.009C20.6247 47.966 23.1359 46.7145 23.482 46.1512C24.1804 45.0124 23.5455 45.0268 23.1502 44.2628C20.4076 38.9374 19.9652 31.2956 27.7914 31.0027C35.0564 30.7303 36.5639 36.8503 34.0815 42.6181C33.336 44.3509 31.4864 45.4712 33.4957 46.821C33.8972 47.0914 36.4247 48.3469 36.7688 48.3572C37.2501 48.3715 37.9752 48.0602 38.5548 48.2158V45.9628H35.5828C34.8885 45.9628 34.6181 44.5332 35.208 44.103L60.8291 44.0662C61.9433 44.5844 61.1404 45.9628 60.7759 45.9628H57.8059H57.8039ZM11.8891 33.1082C9.11379 33.2106 7.14546 34.7386 7.19871 37.6696C7.26221 41.1782 10.0969 47.9107 14.3634 44.613C16.5672 42.9089 18.0215 37.7741 16.7495 35.2998C15.8627 33.5752 13.6895 33.0427 11.8891 33.1103V33.1082ZM27.8631 33.1144C23.0375 33.3294 22.6709 36.8995 23.7462 40.7972C25.6552 47.7263 31.595 46.2434 32.9263 39.8264C33.7825 35.6992 32.4532 32.9096 27.8652 33.1144H27.8631ZM55.7557 45.9628H40.5989V48.2158H55.7557V45.9628ZM2.29734 53.234C2.13143 54.2212 2.41818 55.5771 2.29734 56.6135H16.0204C15.8565 53.8873 16.2539 51.2062 18.2734 49.242C16.9871 48.8016 15.3035 48.0049 14.9942 46.5773C13.2942 47.7345 11.1784 47.6751 9.47018 46.5773C8.41535 49.4079 4.77568 49.0065 3.15144 51.4254C2.95891 51.7101 2.34445 52.9595 2.29734 53.234ZM18.0686 53.6436C17.9313 54.5284 18.1689 55.6898 18.0686 56.6135H32.6109C32.6662 56.464 32.4061 56.3677 32.4061 56.3063V52.6195C32.4061 52.0993 33.7313 52.1197 34.0549 52.0153C34.7083 51.8023 36.439 50.9543 35.6832 50.1616C34.7369 49.1683 31.2304 48.8016 30.958 46.7944C28.9815 47.542 27.3367 47.6423 25.3582 46.7657C24.2071 49.4714 20.3134 49.2604 18.8448 51.7572C18.6728 52.0481 18.1095 53.3753 18.0686 53.6436ZM57.9759 50.2968L38.266 50.2497C37.7724 52.1279 36.4083 53.5453 34.4829 53.9775C34.4502 54.5489 34.2986 56.1097 34.7963 56.423L61.1425 56.5705C62.013 56.3145 61.6525 54.68 61.6689 53.9754C59.7804 53.4716 58.5761 52.1361 57.9759 50.2948V50.2968Z" fill="#FD7E14"/>
<path d="M39.3699 14.011C35.2264 13.2757 35.507 5.96355 39.6997 5.43102C44.9554 4.7633 51.5998 5.80789 56.9948 5.49861C59.6534 6.24825 59.893 8.63852 59.6554 11.0513C59.5837 11.7928 59.2233 12.6325 58.703 13.1712C58.1295 13.7652 56.8842 13.9536 56.7736 14.5189L56.7675 30.2615C58.2381 30.8473 59.4506 31.6686 59.6452 33.3645C59.9197 35.763 59.6698 38.4359 56.8842 39.0012L38.9501 38.9009C35.4845 37.9894 35.5849 31.0582 39.3659 30.3946V26.7078H6.0865C5.94927 26.7078 4.97227 26.3125 4.74492 26.206C1.5579 24.7067 1.49645 20.1331 4.61588 18.4761C4.81865 18.3675 5.7895 17.8985 5.88167 17.8985H39.3699V14.0069V14.011ZM39.5133 7.49766C38.1513 7.89502 37.9772 12.0345 39.8922 12.1532C45.0517 11.7293 51.2332 12.7616 56.2697 12.1696C58.4265 11.9157 58.361 7.76188 56.4582 7.46694L39.5133 7.49766ZM54.7315 14.2158H41.4182V30.3967H54.7315V14.2158ZM39.3699 19.746H6.49614C4.42335 19.746 3.38081 22.9453 5.50276 24.2213C5.63794 24.3032 6.44084 24.6617 6.49614 24.6617H39.3699V19.746ZM40.0786 32.3425C37.885 32.2995 37.9116 36.9366 39.9291 37.1066C44.9984 36.7584 51.1185 37.7395 56.0649 37.1599C58.5125 36.8731 58.318 32.6231 56.3803 32.3261L40.0786 32.3425Z" fill="#FD7E14"/>
<path d="M61.3596 58.8153H61.3391L0.810342 58.7723L0.771426 58.7538C0.740703 58.7415 0.709979 58.7272 0.677208 58.7149C0.552267 58.6658 0.41094 58.6084 0.304433 58.5019C-0.146173 58.0452 0.0361175 53.8648 0.0381657 53.8238C0.206119 51.6896 1.3183 49.7253 3.01627 48.5701C3.36241 48.3346 3.8929 48.0888 4.50941 47.802C5.75473 47.2244 7.46294 46.4318 7.59607 45.5756C7.60836 45.3647 7.04305 44.3283 6.67028 43.6421C6.30774 42.9765 5.96569 42.3497 5.8387 41.9892C4.66508 38.6261 4.84327 35.4984 6.32618 33.4113C7.54282 31.699 9.58488 30.7916 12.2332 30.7916C15.0557 30.7916 17.1838 31.8157 18.3861 33.7513C19.9058 36.1969 19.7911 39.8652 18.0829 43.3247C17.8392 43.8162 17.5442 44.2095 17.2841 44.5556C16.9359 45.0185 16.6615 45.3831 16.725 45.7252C16.7844 46.0467 17.1469 46.4134 17.8351 46.8455C18.3635 47.1773 19.6682 47.8266 19.9837 47.8061C20.5797 47.7652 23.0027 46.5342 23.3038 46.0467C23.7298 45.3544 23.6172 45.2213 23.3448 44.8997C23.2301 44.7625 23.0867 44.5945 22.9659 44.359C21.4215 41.3625 20.254 36.7765 22.0421 33.7144C23.1133 31.8833 25.0427 30.9022 27.7812 30.7998C30.7245 30.6913 32.9529 31.615 34.229 33.4789C35.7692 35.7278 35.7836 39.175 34.2658 42.702C34.0549 43.1936 33.7538 43.6421 33.4875 44.0395C32.7829 45.0923 32.3159 45.7887 33.6043 46.655C34.0037 46.9234 36.4636 48.1339 36.7708 48.1584C36.9347 48.1605 37.1477 48.1216 37.373 48.0786C37.6802 48.0192 38.0182 47.9536 38.3438 47.9802V46.1737H35.5787C35.2162 46.1737 34.911 45.8993 34.7615 45.4405C34.5956 44.9345 34.653 44.2566 35.0831 43.9432L35.1363 43.9043L60.8701 43.8674L60.911 43.8859C61.4559 44.1398 61.6955 44.6212 61.5644 45.209C61.4641 45.6658 61.1118 46.1737 60.7697 46.1737H58.0046V48.0376L59.6432 48.2076L59.6903 48.2465C59.9484 48.4554 60.0221 48.8528 60.1081 49.3116C60.274 50.2026 60.483 51.3106 61.9925 51.7776C62.1563 51.8288 62.355 51.8473 62.5639 51.8677C63.074 51.9169 63.7068 51.9783 63.8932 52.6072C64.053 53.1479 64.0018 55.3743 63.9424 55.9232C63.7785 57.4553 62.8425 58.5101 61.376 58.8173L61.3555 58.8214L61.3596 58.8153ZM0.894319 58.3626L61.3166 58.4056C62.5865 58.1312 63.3976 57.2095 63.5389 55.874C63.6085 55.2268 63.6311 53.1479 63.5041 52.7178C63.4037 52.3798 63.0699 52.3224 62.5291 52.2692C62.3079 52.2467 62.0785 52.2262 61.8757 52.1627C60.1286 51.622 59.8767 50.2722 59.7087 49.3792C59.6473 49.0494 59.5879 48.734 59.4732 48.5947L57.597 48.4001V45.7559H60.7718C60.8537 45.7354 61.1425 45.4077 61.1855 44.9939C61.2183 44.6683 61.0831 44.4245 60.7779 44.2689L35.2777 44.3057C35.0606 44.5167 35.0401 44.9673 35.1507 45.3053C35.2224 45.5224 35.3719 45.7559 35.5787 45.7559H38.7535V48.4821L38.4975 48.4124C38.1882 48.3305 37.8154 48.4022 37.4529 48.4739C37.203 48.523 36.9715 48.5681 36.7585 48.5619C36.3325 48.5496 33.7108 47.2142 33.379 46.991C31.7506 45.8972 32.4614 44.8362 33.1496 43.808C33.4179 43.4086 33.6944 42.9949 33.891 42.5381C35.3534 39.1422 35.3534 35.8405 33.891 33.7083C32.6969 31.9673 30.5914 31.1009 27.7955 31.2074C25.2066 31.3037 23.3898 32.2172 22.3944 33.9193C20.6882 36.838 21.8311 41.2642 23.3284 44.1685C23.4288 44.3631 23.5435 44.5003 23.6561 44.6314C24.0145 45.0554 24.1927 45.377 23.652 46.2577C23.2608 46.8947 20.6616 48.1687 20.0103 48.2117C19.445 48.2506 17.8269 47.3228 17.6159 47.1896C16.8048 46.6796 16.4054 46.2495 16.3215 45.7968C16.2252 45.2766 16.5631 44.828 16.9564 44.3078C17.2063 43.976 17.4889 43.5991 17.7142 43.1424C19.359 39.8099 19.4818 36.2931 18.0358 33.9664C16.9113 32.1578 14.9041 31.2013 12.2291 31.2013C9.72007 31.2013 7.7927 32.0472 6.65594 33.6489C5.25087 35.6275 5.09315 38.6179 6.22172 41.8561C6.33642 42.1858 6.68666 42.8269 7.02462 43.4475C7.71896 44.7215 8.04053 45.3524 7.99547 45.6412C7.82957 46.7144 6.15413 47.4907 4.67737 48.1769C4.10387 48.4431 3.56109 48.6951 3.24362 48.9122C1.65011 49.9977 0.603472 51.8473 0.443712 53.8586C0.369976 54.7864 0.384314 57.9079 0.599376 58.2254C0.64034 58.2643 0.738654 58.3053 0.824679 58.3401C0.84721 58.3503 0.871788 58.3585 0.89227 58.3688L0.894319 58.3626ZM32.7543 56.8162H17.8392L17.8638 56.5889C17.9088 56.169 17.8801 55.6795 17.8535 55.2043C17.8228 54.6595 17.79 54.0962 17.8658 53.6087C17.9129 53.3097 18.4905 51.9517 18.6687 51.6506C19.402 50.4012 20.7046 49.8072 21.9622 49.2296C23.3181 48.609 24.6003 48.0212 25.1697 46.6817L25.2517 46.4912L25.4421 46.5752C27.2446 47.3719 28.8217 47.3781 30.8863 46.5997L31.1259 46.5096L31.1608 46.7636C31.3185 47.929 32.7461 48.5128 34.0057 49.0289C34.7533 49.3362 35.46 49.625 35.8307 50.0162C36.0969 50.2968 36.0969 50.5733 36.0519 50.7556C35.8655 51.4929 34.5936 52.0541 34.1184 52.2077C34.016 52.2405 33.8603 52.261 33.6637 52.2835C33.3749 52.3184 32.6109 52.4126 32.6109 52.6153V56.2263C32.6969 56.2939 32.8874 56.4475 32.8034 56.679L32.7543 56.8142V56.8162ZM18.2898 56.4066H32.2238C32.2094 56.3779 32.1992 56.3431 32.1992 56.3042V52.6174C32.1992 52.0521 33.0144 51.9517 33.6104 51.878C33.764 51.8596 33.9238 51.8391 33.9893 51.8186C34.5096 51.6506 35.5316 51.1365 35.6525 50.6552C35.673 50.5774 35.6812 50.4565 35.5316 50.2988C35.2203 49.9711 34.5526 49.6987 33.848 49.4078C32.5679 48.8835 31.13 48.2936 30.8003 47.0647C28.8033 47.7775 27.2261 47.7672 25.4565 47.0299C24.7888 48.3837 23.4369 49.0023 22.1281 49.6024C20.9279 50.1513 19.6867 50.7207 19.0169 51.8575C18.8489 52.1422 18.3021 53.4408 18.2652 53.6702C18.1956 54.1146 18.2263 54.6554 18.257 55.1797C18.2816 55.5893 18.3062 56.0113 18.2836 56.4045L18.2898 56.4066ZM16.2375 56.8162H2.0659L2.09252 56.5868C2.14782 56.1137 2.113 55.5504 2.08023 55.0056C2.04337 54.3829 2.0024 53.7378 2.09457 53.197C2.14782 52.8775 2.78277 51.6015 2.9794 51.3086C3.75772 50.1493 4.96412 49.6168 6.1316 49.1027C7.47113 48.5128 8.73488 47.9536 9.2756 46.5035L9.36368 46.2659L9.57669 46.4031C11.2583 47.4846 13.2881 47.4866 14.8734 46.4072L15.1253 46.2372L15.1888 46.5342C15.412 47.5645 16.4689 48.4104 18.3348 49.0474L18.6503 49.1559L18.4106 49.3894C16.7188 51.0362 16.0224 53.3261 16.219 56.6012L16.2313 56.8183L16.2375 56.8162ZM2.5206 56.4066H15.8033C15.6496 53.2667 16.3194 51.0014 17.9006 49.3259C16.2334 48.7053 15.2154 47.8901 14.8713 46.8988C13.2512 47.8778 11.2644 47.8717 9.5685 46.8783C8.92331 48.3223 7.58993 48.9101 6.29955 49.4795C5.18532 49.9711 4.03423 50.4791 3.32145 51.54C3.12073 51.8391 2.53698 53.0455 2.50012 53.2687C2.41614 53.7644 2.45506 54.385 2.49192 54.9851C2.5206 55.4644 2.55132 55.958 2.52265 56.4086L2.5206 56.4066ZM61.1691 56.7753H61.1384L34.7328 56.6278L34.6837 56.5971C34.1696 56.2714 34.1983 55.1551 34.2658 54.1331L34.2843 53.8115L34.4358 53.7767C36.226 53.3752 37.5839 52.0377 38.0673 50.1964L38.1083 50.0428L58.1255 50.0899L58.1705 50.2312C58.787 52.1197 59.9832 53.3138 61.7221 53.7767L61.8778 53.8176L61.8737 53.9795C61.8696 54.1208 61.8839 54.3133 61.8983 54.5181C61.9577 55.362 62.0417 56.5172 61.1998 56.765L61.1712 56.7732L61.1691 56.7753ZM34.8639 56.2202L61.1077 56.3677C61.6054 56.1895 61.5378 55.2432 61.4866 54.5509C61.4763 54.4034 61.4661 54.2601 61.462 54.1331C59.7292 53.621 58.4757 52.3696 57.8264 50.5016L38.4196 50.4565C37.8768 52.3184 36.4943 53.6804 34.6755 54.1433V54.1617C34.6448 54.6062 34.5587 55.9232 34.8639 56.2222V56.2202ZM55.9585 48.4186H40.392V45.7559H55.9585V48.4186ZM40.8017 48.0089H55.5488V46.1655H40.8017V48.0089ZM12.1247 45.7047C11.6823 45.7047 11.248 45.6023 10.822 45.3974C8.4256 44.2484 7.03896 40.1008 6.99389 37.6716C6.94269 34.8 8.76969 33.018 11.883 32.9033C12.774 32.8706 15.7684 32.9382 16.9318 35.2055C18.2959 37.86 16.6635 43.0932 14.4883 44.7748C13.6854 45.3954 12.8948 45.7067 12.1247 45.7067V45.7047ZM11.8973 33.313C9.03596 33.4195 7.35643 35.0458 7.40354 37.6654C7.4445 39.9902 8.74921 43.9494 10.9982 45.0288C12.0182 45.5183 13.1078 45.3237 14.2364 44.4491C16.4321 42.7512 17.7368 37.6736 16.5652 35.3919C15.5124 33.3417 12.7248 33.2823 11.8953 33.313H11.8973ZM28.0331 45.5613C26.0341 45.5613 24.3627 43.8101 23.5475 40.8504C22.7836 38.0771 22.8901 35.9941 23.8609 34.6566C24.6433 33.5793 25.987 32.9914 27.8529 32.9074C29.9154 32.8153 31.4311 33.315 32.3528 34.3965C33.3708 35.5906 33.6289 37.4299 33.125 39.8652C32.4327 43.1977 30.4316 45.4855 28.1437 45.5593C28.1069 45.5593 28.07 45.5593 28.0331 45.5593V45.5613ZM28.326 33.3068C28.1786 33.3068 28.027 33.3109 27.8713 33.3171C26.1365 33.3949 24.8973 33.9254 24.1927 34.8963C23.2977 36.1272 23.2137 38.0935 23.9429 40.7398C24.7191 43.5602 26.284 45.2111 28.1314 45.1496C30.2268 45.082 32.0722 42.9253 32.7256 39.7812C33.2028 37.477 32.9734 35.7545 32.0435 34.6607C31.2755 33.7595 30.0281 33.3048 28.3301 33.3048L28.326 33.3068Z" fill="#FD7E14"/>
<path d="M56.9047 39.2081H56.8842L38.9255 39.1077L38.9009 39.1016C36.951 38.5895 36.1604 36.4205 36.2403 34.4972C36.312 32.7972 37.1231 30.6896 39.1651 30.2287V26.9147H6.08444C5.86119 26.9147 4.72443 26.4272 4.65479 26.3945C3.10224 25.6632 2.14983 24.1865 2.10886 22.4455C2.06585 20.6984 2.98959 19.109 4.51551 18.2979C4.5278 18.2917 5.69323 17.6977 5.87757 17.6977H39.161V14.1789C37.0514 13.7078 36.1502 11.6207 36.1973 9.71791C36.2464 7.76186 37.3525 5.52317 39.671 5.22822C42.6327 4.8534 46.0615 5.01726 49.3796 5.17702C51.9562 5.30196 54.6189 5.42895 56.9825 5.29377H57.0173L57.0501 5.30196C59.9606 6.12124 60.0794 8.81669 59.8603 11.0718C59.7804 11.8829 59.3851 12.7615 58.8525 13.3146C58.574 13.6034 58.1623 13.8 57.7977 13.9741C57.4249 14.1523 57.0399 14.3366 56.9805 14.5455L56.9743 30.1263C58.2278 30.6424 59.637 31.4822 59.85 33.344C60.2453 36.8096 59.2888 38.7267 56.9272 39.206L56.9067 39.2101L56.9047 39.2081ZM38.9808 38.6981L56.8658 38.7984C58.9652 38.3622 59.8091 36.5925 59.4424 33.3891C59.2478 31.687 57.9431 30.9497 56.6937 30.452L56.5647 30.4008L56.5749 14.48C56.6569 14.0622 57.1238 13.8389 57.6195 13.6013C57.9677 13.4354 58.3282 13.2634 58.5555 13.0278C59.0287 12.5383 59.381 11.7538 59.4506 11.0288C59.6677 8.81055 59.5407 6.44691 56.9702 5.70341C54.5943 5.83654 51.9337 5.70751 49.3591 5.58461C46.0594 5.42485 42.6471 5.26099 39.7222 5.63172C37.6331 5.89594 36.652 7.87861 36.6069 9.72405C36.5639 11.4998 37.4098 13.4518 39.4027 13.8041L39.5727 13.8348V18.1033H5.9001C5.74649 18.1504 4.94973 18.5293 4.71009 18.6563C3.3214 19.3937 2.48164 20.8397 2.52055 22.4312C2.55947 24.0144 3.42177 25.356 4.83094 26.0196C5.07467 26.1343 5.95745 26.4846 6.09673 26.503H39.5748V30.5667L39.4048 30.5974C37.4774 30.9353 36.7175 32.918 36.6499 34.5136C36.5782 36.2074 37.2787 38.2331 38.9808 38.6981ZM52.3597 37.5511C50.717 37.5511 49.0232 37.4712 47.36 37.3913C44.853 37.2725 42.262 37.1496 39.9434 37.3094H39.9271H39.9107C38.7248 37.209 38.1574 35.7773 38.2229 34.4828C38.2844 33.299 38.8825 32.111 40.0786 32.1376L56.3947 32.1213H56.4111C57.5294 32.2954 58.0927 33.5837 58.0722 34.7655C58.0537 35.8592 57.5212 37.1947 56.0895 37.3626C54.9056 37.5019 53.648 37.5511 52.3597 37.5511ZM42.4033 36.824C44.0337 36.824 45.7255 36.9038 47.3785 36.9817C50.332 37.1209 53.3859 37.2664 56.0403 36.955C57.2099 36.8178 57.6441 35.6851 57.6625 34.7573C57.681 33.7578 57.2406 32.6743 56.364 32.5288L40.0745 32.5452C40.0745 32.5452 40.0581 32.5452 40.05 32.5452C39.1426 32.5452 38.6838 33.5243 38.6346 34.5033C38.5773 35.6012 39.0136 36.8096 39.9312 36.8997C40.73 36.8444 41.5574 36.824 42.4033 36.824ZM54.9343 30.5994H41.2113V14.0089H54.9343V30.5994ZM41.6209 30.1898H54.5247V14.4186H41.6209V30.1898ZM39.5727 24.8644H6.49408C6.34661 24.8644 5.43516 24.4179 5.39419 24.3954C4.35985 23.7748 3.90514 22.6053 4.23491 21.4193C4.54623 20.2949 5.45564 19.5391 6.49408 19.5391H39.5727V24.8644ZM6.52071 24.4548H39.1651V19.9487H6.49408C5.50889 19.9487 4.84732 20.7414 4.63021 21.5279C4.409 22.3267 4.54828 23.4061 5.60721 24.0431C5.71576 24.1086 6.37734 24.4056 6.52071 24.4548ZM52.5625 12.5629C50.9485 12.5629 49.2874 12.485 47.655 12.4093C45.0394 12.2864 42.3337 12.1594 39.9086 12.3601H39.8943H39.8799C39.0238 12.3068 38.4319 11.547 38.2946 10.3262C38.1554 9.07681 38.5588 7.56523 39.456 7.30306L39.5133 7.29487L56.4746 7.26415H56.491C57.6216 7.44234 58.1131 8.73271 58.0906 9.85718C58.0701 11.0083 57.5048 12.2331 56.2943 12.3744C55.1084 12.5137 53.8508 12.5629 52.5645 12.5629H52.5625ZM42.7618 11.8439C44.3778 11.8439 46.0451 11.9218 47.6775 11.9976C50.5941 12.1348 53.6091 12.2761 56.2472 11.9648C57.214 11.8521 57.6646 10.8198 57.683 9.84694C57.7014 8.86995 57.2816 7.81307 56.4438 7.67174L39.5461 7.70246C38.9644 7.90319 38.5711 9.0932 38.7043 10.2791C38.7452 10.6539 38.9542 11.8788 39.8922 11.9484C40.818 11.8726 41.7807 11.8439 42.7618 11.8439Z" fill="#FD7E14"/>
</g>
<defs>
<clipPath id="clip0_119_305">
<rect width="64" height="64" fill="white" transform="translate(64) rotate(90)"/>
</clipPath>
</defs>
</svg>
