<svg width="64" height="64" viewBox="0 0 64 64" fill="none" xmlns="http://www.w3.org/2000/svg">
<g clip-path="url(#clip0_119_332)">
<path d="M10.242 13.5038H25.5484C25.7678 13.5038 28.0529 11.5481 29.2171 11.1454C38.0948 8.07329 42.6843 12.9829 50.6075 13.5134C51.6802 13.5858 52.7962 13.4435 53.8713 13.5014C53.4012 12.1558 53.3843 10.4919 55.0162 10.1881C56.4408 9.92043 60.8953 9.97348 62.4284 10.1302C63.0117 10.1905 63.9253 10.3014 64 10.9694L63.8795 39.3082C63.5565 39.6675 63.1274 39.7398 62.6767 39.7929C61.5847 39.9159 54.8065 39.9038 54.2497 39.5252C54.0087 39.3613 53.9026 39.1105 53.8616 38.8332H53.5193L52.1791 40.403C53.2662 42.6142 53.1819 45.4428 51.2077 47.1308C50.5231 47.7144 49.2745 47.8663 48.9322 48.2304C48.6382 48.5415 48.549 49.4216 48.2477 49.957C46.9508 52.2767 44.133 52.6577 41.9588 51.3507C41.2839 53.0315 39.4495 54.0901 37.6368 54.0033C36.6751 53.9575 35.0191 52.8772 34.713 52.8965C34.5225 52.9085 33.4716 53.7718 32.975 53.9695C30.5405 54.9293 27.5081 54.2324 25.452 52.6722L10.1287 39.1129C9.84189 39.2696 9.62013 39.5879 9.29472 39.6868C8.33776 39.9738 2.42974 39.9376 1.20282 39.7977C0.749652 39.7471 0.323001 39.6723 0 39.313L0.0940077 10.516C0.250687 10.2966 1.55233 10.1447 1.91872 10.1206C3.34571 10.0217 8.08467 9.92043 9.23927 10.2894C10.6494 10.7403 9.64664 12.3294 10.242 13.5062V13.5038ZM7.59052 12.7804H2.64909L2.28752 13.1421V36.7738L2.64909 37.1355H7.59052V12.7804ZM50.9064 38.0302L53.6326 34.8471L53.6423 16.2697C51.3065 16.0382 48.9443 16.0044 46.6327 15.5631C43.152 14.9 40.2835 13.0094 36.6486 12.7707C30.3308 12.3559 28.0167 14.3815 23.9744 18.6835C22.3256 20.4366 19.4572 23.0674 22.3112 25.1846C23.6008 26.1419 24.6493 25.7561 25.8979 24.9435C27.1465 24.1308 31.5263 19.6143 32.5604 19.525C32.7701 19.5082 32.9606 19.5299 33.1389 19.6504C37.1282 23.9476 41.132 28.2206 45.0803 32.5515C46.5001 34.1092 48.1705 36.5279 49.6554 37.8662C50.0579 38.2279 50.4629 38.4208 50.9112 38.0326L50.9064 38.0302ZM56.2817 12.7804V36.7738L56.6433 37.1355H61.2231L61.5847 36.7738V13.1421L61.2231 12.7804H56.2817ZM22.1738 15.9152H10.6036C10.5626 15.9152 10.1794 16.2865 10.1263 16.4023L10.1842 35.3873L12.168 37.5021C17.1359 41.136 21.6194 46.6027 26.5198 50.1523C27.8191 51.0951 29.4341 51.9223 31.0901 51.862C31.577 51.8451 32.6593 51.5316 32.3097 50.8757L25.9437 45.1607C26.2137 42.8433 27.4117 43.2219 28.9182 44.377C31.6035 46.4315 33.9922 49.2504 36.8245 51.1747C39.0855 51.833 40.6909 50.5212 38.6878 48.5873C36.3979 46.376 33.3245 44.5313 31.0901 42.1922C30.7213 40.8033 31.8445 39.8218 33.1293 40.6465C36.475 42.7927 40.2136 47.4563 43.5786 49.2408C45.5697 50.297 46.746 48.4691 45.9288 46.6485L35.682 37.3694C34.8046 36.4025 35.6555 35.0231 36.8631 35.1992L48.0886 45.2089C50.0194 46.0963 50.8076 43.2894 49.882 41.9704L32.8304 23.065C32.4929 22.8648 32.3435 22.9854 32.047 23.1229C30.8225 23.6895 28.8507 25.9876 27.5756 26.8678C25.1242 28.5606 22.2075 28.956 19.9682 26.6821C16.367 23.024 20.0453 18.9608 22.774 16.2769C22.8053 16.207 22.2365 15.9272 22.1738 15.9176V15.9152Z" fill="#FD7E14"/>
</g>
<defs>
<clipPath id="clip0_119_332">
<rect width="64" height="64" fill="white" transform="translate(64) rotate(90)"/>
</clipPath>
</defs>
</svg>
