<svg width="64" height="64" viewBox="0 0 64 64" fill="none" xmlns="http://www.w3.org/2000/svg">
<g clip-path="url(#clip0_119_311)">
<path d="M51.552 7.84635L57.4594 18.2047C67.9923 24.6722 65.3122 40.8992 52.9459 43.0579C40.1423 45.292 31.9146 29.5627 41.1269 20.3591C41.8421 19.646 43.2597 18.8704 43.8199 18.2047C44.7915 17.0456 47.7969 11.6855 48.4928 10.1666C48.6565 9.80901 48.8762 9.5117 48.8095 9.08297C44.4834 8.20828 40.1014 7.41116 35.6978 7.17417C35.3272 8.61331 34.347 9.28118 33.0737 9.87148L33.0931 33.1132C33.0177 34.4704 31.18 34.5803 30.9322 33.3135L30.9365 9.87148C29.6202 9.28333 28.6917 8.54437 28.2091 7.12893C23.7387 7.34652 19.3566 8.20613 14.9854 9.08297L20.1882 18.2047C30.1825 24.222 28.3728 39.7854 16.9243 42.7994C1.76164 46.7893 -6.63838 26.3634 6.55087 18.2026L12.7448 7.59213C17.6913 6.08404 22.8317 5.38817 27.9785 4.94437C28.6443 4.29374 28.6529 3.62156 29.4371 2.95585C30.9646 1.66106 33.2202 1.67183 34.696 3.04849C35.3703 3.67758 35.3918 4.38422 36.0382 4.9379C41.2475 5.60361 46.6141 5.9871 51.552 7.84419V7.84635ZM31.738 4.16016C29.5039 4.51995 29.8464 8.0941 32.3089 7.78171C34.515 7.50164 34.0798 3.78099 31.738 4.16016ZM16.9243 16.8324L13.3696 10.8065L9.81479 16.8324C12.2579 16.3627 14.4812 16.3627 16.9243 16.8324ZM54.1955 16.8324L50.6407 10.8065L47.0859 16.8324C49.529 16.3627 51.7524 16.3627 54.1955 16.8324ZM12.5724 18.6248C-1.85345 19.5318 -0.787022 41.5498 13.5915 41.1922C28.6723 40.8173 27.8321 17.664 12.5724 18.6248ZM59.7969 36.2241C64.6314 29.9311 60.7233 20.5358 53.1269 18.8726C46.1682 17.3494 39.6856 22.4963 39.3301 29.5455C39.287 29.901 39.5908 31.7925 39.6533 32.12C39.7157 32.4475 40.8425 35.8169 41.4845 36.2263C41.4845 36.2263 41.6935 32.2493 41.7581 32.1889C42.5789 31.7667 47.3014 31.5857 47.3014 32.6715V40.7505H47.7323V34.6105C47.7323 33.529 53.5491 33.529 53.5491 34.6105V40.7505H53.98V30.0862C53.98 30.0022 54.2299 29.6015 54.342 29.5326C54.9474 29.1577 59.1377 29.0737 59.7969 29.8708V36.2263V36.2241ZM57.6425 31.4844H56.1344V39.6712L57.6425 38.7017V31.4844ZM45.147 34.0697H43.6389V38.7017L45.147 39.6712V34.0697ZM51.3947 36.0087H49.8867V41.1793H51.3947V36.0087Z" fill="#FD7E14"/>
<path d="M18.1092 62.9388C17.1355 62.6652 17.6784 59.6145 17.8464 58.798C18.818 54.0368 22.7649 49.5599 27.483 48.2867C27.6231 47.7179 27.0629 47.8364 26.7204 47.44C20.8863 40.701 28.7563 31.7043 35.868 36.1337C39.9506 38.6759 40.3814 43.8745 37.2963 47.44C36.9538 47.8364 36.3937 47.7179 36.5337 48.2867C40.9933 49.5298 44.6084 53.3969 45.8536 57.8199C46.0626 58.5632 47.0773 62.9388 45.9053 62.9388H18.1092ZM31.5269 37.1377C24.8999 37.8335 25.5182 47.9743 32.5416 47.4271C39.5649 46.8799 38.184 36.4375 31.5269 37.1377ZM44.2852 60.7844C42.3721 45.9922 21.6382 45.9922 19.725 60.7844H44.2852Z" fill="#FD7E14"/>
<path d="M12.9796 60.8017L50.6493 60.75C52.2586 60.9611 51.8665 63.1414 50.2184 62.9238L12.8783 62.7579C12.0381 62.2452 12.1092 61.2369 12.9796 60.8017Z" fill="#FD7E14"/>
<path d="M14.6018 24.7583C14.7806 25.0082 15.9935 25.3745 16.5386 26.3784C17.6934 28.5027 15.7609 29.7522 14.897 28.2355C14.7138 27.9167 14.7763 27.5224 14.4682 27.1562C13.7013 26.2492 11.7429 26.7619 12.0553 28.0502C12.26 28.9034 14.0287 28.8172 14.7354 29.0456C16.6313 29.6574 17.5921 31.9454 16.3964 33.6495C15.9483 34.2872 14.6837 34.8689 14.604 34.981C14.2636 35.4549 14.6794 37.088 13.1691 36.879C12.0984 36.7303 12.5939 35.651 12.2988 35.1447C12.1652 34.9163 11.5124 34.7655 11.2172 34.5027C10.3404 33.7163 8.83878 31.6739 10.53 30.9953C11.8485 30.4675 11.8183 32.0854 12.2815 32.5766C13.083 33.4255 15.0025 33.0075 14.688 31.689C14.507 30.935 12.6025 30.9328 11.8549 30.6312C9.82765 29.8147 9.14255 27.6215 10.5666 25.8786C11.004 25.3422 12.2212 24.7282 12.2988 24.5946C12.6887 23.9267 12.0876 22.2204 14.0374 23.065C14.5566 23.4635 14.4014 24.4804 14.6018 24.7605V24.7583Z" fill="#FD7E14"/>
</g>
<defs>
<clipPath id="clip0_119_311">
<rect width="64" height="64" fill="white" transform="translate(64) rotate(90)"/>
</clipPath>
</defs>
</svg>
