<svg width="64" height="64" viewBox="0 0 64 64" fill="none" xmlns="http://www.w3.org/2000/svg">
<g clip-path="url(#clip0_119_292)">
<path d="M7.2773 49.0525L7.58605 48.3653L7.66971 2.83345C8.17567 1.40323 9.3549 0.455069 10.8628 0.249899C21.2388 0.835529 32.4674 -0.526959 42.7418 0.241931C43.8952 0.327584 44.4171 0.554666 45.3174 1.25185C46.8711 2.45099 51.7195 7.28145 52.8748 8.83318C54.6397 11.2056 53.4186 15.5022 53.8091 18.3566C67.0794 22.1991 66.8822 40.774 53.7792 44.8017L53.7951 60.1157C53.6856 62.267 52.2852 63.8068 50.11 64L3.37907 63.9044C0.0226493 62.9662 -1.08487 59.1695 1.20785 56.5223C-0.646643 54.363 -0.367771 50.9747 2.20781 49.5624C2.40103 49.4568 3.18585 49.0525 3.29143 49.0525H7.27531H7.2773ZM42.4351 2.83942H10.6636C10.5819 2.83942 9.96642 3.63222 9.96642 3.7358V49.0525H19.229C20.5496 49.0525 22.2547 51.3273 22.4678 52.5842C22.8344 54.7415 21.3165 55.8709 21.3185 56.5242C21.3185 56.8011 21.9141 57.335 22.0973 57.7373C22.6411 58.9385 22.6631 60.1994 22.1193 61.4005H50.5044C50.5821 61.4005 50.9526 61.1695 51.0164 61.0659L51.2016 45.2658C39.1583 46.1283 31.5392 32.113 39.4531 22.6632C41.22 20.5518 45.5146 17.777 48.3113 17.777H51.1996V11.4028H45.1242C45.0047 11.4028 43.7259 10.5701 43.5506 10.3869C43.2199 10.0443 42.4351 8.5304 42.4351 8.11608V2.83942ZM49.4069 9.01444L45.0246 4.63217V8.11807C45.0246 8.31726 45.7218 9.01444 45.921 9.01444H49.4069ZM57.9025 23.4261C46.8632 12.6517 30.9057 30.3661 42.8315 40.1903C53.8569 49.2736 68.0096 33.2882 57.9025 23.4261ZM3.05837 54.7654C3.32529 55.0104 3.9169 55.1916 4.2854 55.2335C8.66369 55.7235 13.9443 54.8669 18.4202 55.2175C20.6771 54.5861 20.46 51.7177 18.0338 51.4448C13.781 50.9647 8.65373 51.7874 4.30732 51.4627C2.70779 51.4886 1.96479 53.7674 3.05638 54.7674L3.05837 54.7654ZM3.73563 57.8588C2.1122 58.2234 2.15801 61.1575 3.90494 61.3906C8.49239 61.0201 13.9603 61.9264 18.4382 61.4065C20.5277 61.1635 20.4142 58.1098 18.6214 57.829L3.73563 57.8588Z" fill="#FD7E14"/>
<path d="M13.4961 7.06445H39.1085C39.5826 7.30747 39.9511 7.79948 40.0347 8.32734C40.1742 9.20778 40.1742 14.6856 39.957 15.3987C39.8216 15.8469 39.2658 16.4206 38.7619 16.3947L13.3427 16.2971C12.8666 16.1258 12.6475 15.7653 12.5698 15.2772C12.3567 13.9267 12.4164 9.95277 12.5479 8.50861C12.6137 7.78952 12.7013 7.27161 13.4961 7.06644V7.06445ZM37.4552 9.61215H14.9462V13.7952H37.4552V9.61215Z" fill="#FD7E14"/>
<path d="M26.0454 47.8991L47.3213 47.8513C49.2455 48.0744 49.2455 50.2277 47.3213 50.4488C40.7538 49.901 33.0291 51.1659 26.6011 50.4448C24.5574 50.2158 24.6331 48.2099 26.0454 47.8971V47.8991Z" fill="#FD7E14"/>
<path d="M26.2485 54.6778L47.3193 54.626C49.2435 54.8491 49.2435 57.0024 47.3193 57.2235H26.396C24.6928 57.1378 24.5355 54.8989 26.2485 54.6778Z" fill="#FD7E14"/>
<path d="M33.4235 21.0117C34.1366 21.7288 33.5172 23.2725 32.3798 23.161C26.5234 22.655 19.5696 23.8203 13.8447 23.161C11.7412 22.918 12.2731 20.4758 14.2471 20.5655C19.9241 20.926 26.1768 20.0894 31.7862 20.5575C32.1726 20.5894 33.1825 20.7687 33.4235 21.0117Z" fill="#FD7E14"/>
<path d="M33.4235 43.2281C33.1825 43.4711 32.1726 43.6484 31.7862 43.6822C26.1788 44.1503 19.9261 43.3137 14.2471 43.6743C12.2731 43.7639 11.7412 41.3218 13.8447 41.0788C19.5676 40.4194 26.5234 41.5847 32.3798 41.0788C33.5172 40.9672 34.1366 42.511 33.4235 43.2281Z" fill="#FD7E14"/>
<path d="M33.4236 27.7866C33.8419 28.2049 33.7801 29.422 33.1845 29.7427L13.6416 29.9399C12.1098 29.7427 12.1855 27.687 13.6416 27.5296C19.709 27.934 26.392 27.0257 32.3838 27.5316C32.6925 27.5575 33.2044 27.5655 33.4236 27.7866Z" fill="#FD7E14"/>
<path d="M33.4236 36.4553C33.2044 36.6744 32.6925 36.6844 32.3838 36.7103C26.392 37.2162 19.707 36.3079 13.6416 36.7122C12.1855 36.5549 12.1098 34.4972 13.6416 34.302L33.1845 34.4992C33.7801 34.8219 33.8419 36.037 33.4236 36.4553Z" fill="#FD7E14"/>
<path d="M44.674 36.8539C44.3752 36.5551 44.2995 35.5532 44.6162 35.1966L52.6637 27.0098C53.9624 25.4959 56.1954 25.2529 55.3946 27.8484L46.4329 36.8121C46.1062 37.2483 45.0007 37.1786 44.676 36.8539H44.674Z" fill="#FD7E14"/>
<path d="M53.5262 33.7642C54.9704 33.6985 55.313 36.2004 53.6756 36.3C52.0382 36.3996 51.8251 33.8399 53.5262 33.7642Z" fill="#FD7E14"/>
<path d="M47.3671 28.8862C46.4388 29.8144 44.3553 28.5057 45.5305 27.1472C46.7217 25.7688 48.4069 27.8464 47.3671 28.8862Z" fill="#FD7E14"/>
</g>
<defs>
<clipPath id="clip0_119_292">
<rect width="64" height="64" fill="white" transform="translate(64) rotate(90)"/>
</clipPath>
</defs>
</svg>
