<svg width="49" height="48" viewBox="0 0 49 48" fill="none" xmlns="http://www.w3.org/2000/svg">
<g clip-path="url(#clip0_1743_2235)">
<path d="M43.9128 34.3405L43.9003 36.0532L45.2389 36.2C45.7005 36.584 45.1928 38.3463 47.023 38.9306C47.4863 39.0786 48.2106 38.9241 48.3665 39.4657C48.4703 39.8394 48.4355 41.4758 48.3789 41.9321C48.2568 43.0122 47.5966 43.7686 46.5369 43.9892L0.493424 43.6219C0.394805 43.5755 0.265683 43.5365 0.190122 43.4599C-0.0441178 43.2222 0.0134284 40.5583 0.0554405 40.0182C0.188532 38.4738 0.990848 37.0182 2.28364 36.1522C3.12512 35.5875 5.68063 34.8449 5.85578 33.7957C5.91145 33.4688 4.74521 31.6029 4.52904 30.9771C3.11308 26.8257 4.34631 22.6557 9.3092 22.692C14.8125 22.7322 15.6426 27.8841 13.5569 32.0404C12.8772 33.3904 11.6183 33.777 13.4064 34.9243C13.7247 35.1245 14.8089 35.711 15.1288 35.6905C15.601 35.6635 17.5185 34.726 17.7881 34.2941C18.3272 33.4302 17.84 33.4419 17.5474 32.8536C15.4914 28.7813 15.1991 22.9634 21.1531 22.7862C26.6808 22.6211 27.7961 27.2879 25.8762 31.6661C25.2957 32.9788 23.8813 33.821 25.4037 34.8598C25.7067 35.0676 27.6255 36.0407 27.8842 36.0502C28.2495 36.0605 28.8069 35.8286 29.2475 35.9536L29.26 34.241L26.9993 34.2244C26.4741 34.2206 26.2766 33.1306 26.728 32.8066L46.2297 32.9188C47.0717 33.3208 46.4551 34.3667 46.181 34.3647L43.9203 34.3482L43.9128 34.3405ZM9.03104 24.2961C6.91441 24.3567 5.41398 25.5104 5.43572 27.741C5.46185 30.413 7.58613 35.5516 10.8471 33.0634C12.5312 31.7817 13.6711 27.8773 12.7182 25.9901C12.0503 24.676 10.4016 24.2528 9.03104 24.2961ZM21.187 24.3926C17.5093 24.5332 17.2154 27.2486 18.0082 30.2156C19.4235 35.5012 23.9531 34.4077 25.0012 29.5283C25.6788 26.3894 24.682 24.2583 21.187 24.3926ZM42.3524 34.3291L30.8129 34.2447L30.8004 35.9574L42.3398 36.0418L42.3524 34.3291ZM1.61925 39.5652C1.48434 40.3179 1.69757 41.3471 1.60044 42.138L12.0438 42.2144C11.9372 40.1355 12.249 38.0977 13.7975 36.6171C12.818 36.275 11.5437 35.6567 11.3156 34.5741C10.0152 35.4476 8.40181 35.3901 7.11393 34.5433C6.29894 36.6916 3.53047 36.3669 2.27628 38.1999C2.1301 38.4119 1.6512 39.36 1.6192 39.5729L1.61925 39.5652ZM13.6208 39.9651C13.5093 40.6342 13.6855 41.5261 13.6042 42.2258L24.6718 42.3068C24.7183 42.1929 24.5209 42.1154 24.5213 42.0697L24.5418 39.261C24.5447 38.8651 25.557 38.8878 25.8011 38.8134C26.297 38.6572 27.6186 38.0198 27.0521 37.4143C26.3345 36.6555 23.6724 36.3544 23.4705 34.8228C21.9592 35.3827 20.7103 35.4497 19.2081 34.7688C18.3176 36.8252 15.3579 36.6361 14.225 38.5308C14.094 38.7506 13.6527 39.7598 13.6208 39.9651ZM44.0181 37.6374L29.0155 37.4896C28.6321 38.9179 27.5813 39.9911 26.1175 40.3077C26.0915 40.7415 25.9686 41.9281 26.3398 42.1744L46.3961 42.4353C47.0597 42.2422 46.7948 40.9995 46.814 40.4591C45.3781 40.068 44.4722 39.0414 44.0257 37.6374L44.0181 37.6374Z" fill="white"/>
<path d="M30.0564 9.91086C26.9092 9.32454 27.163 3.76188 30.3553 3.38178C34.3628 2.90108 39.4112 3.73729 43.5233 3.53139C45.5439 4.11708 45.7133 5.93764 45.5172 7.77074C45.4598 8.33362 45.1811 8.97101 44.7822 9.37915C44.3451 9.82507 43.3925 9.96274 43.3056 10.396L43.218 22.377C44.326 22.8342 45.2501 23.4651 45.3853 24.7526C45.5775 26.5809 45.3723 28.6119 43.2531 29.0303L29.6057 28.8543C26.9695 28.1423 27.0842 22.8679 29.9728 22.379L29.9933 19.5703L4.65365 19.3849C4.54709 19.3842 3.81097 19.0743 3.63646 18.9969C1.21665 17.8374 1.19642 14.3584 3.58054 13.1122C3.73339 13.0296 4.47435 12.6773 4.55047 12.6778L30.0424 12.8643L30.064 9.90331L30.0564 9.91086ZM30.1992 4.94875C29.1618 5.24565 29.0017 8.39593 30.4625 8.49796C34.3925 8.207 39.0909 9.02542 42.9305 8.60439C44.5761 8.42612 44.5459 5.25922 43.1013 5.0279L30.2068 4.95642L30.1992 4.94875ZM41.747 10.1486L31.6157 10.0745L31.5256 22.3904L41.6569 22.4645L41.747 10.1486ZM30.0244 14.2724L5.00449 14.0894C3.42885 14.0779 2.61179 16.5078 4.22598 17.494C4.3321 17.5556 4.93903 17.8341 4.97709 17.8344L29.9971 18.0174L30.0244 14.2724ZM30.4947 23.8672C28.828 23.8246 28.8174 27.349 30.3541 27.4896C34.2152 27.2514 38.8681 28.0315 42.6392 27.6175C44.5057 27.4104 44.3771 24.1743 42.9097 23.9428L30.5023 23.8673L30.4947 23.8672Z" fill="white"/>
</g>
<defs>
<clipPath id="clip0_1743_2235">
<rect width="49" height="48" fill="white"/>
</clipPath>
</defs>
</svg>
