<?xml version="1.0" encoding="UTF-8"?>
<svg id="Layer_1" data-name="Layer 1" xmlns="http://www.w3.org/2000/svg" viewBox="0 0 63.82 63.82">
  <defs>
    <style>
      .cls-1 {
        fill: #0a153a;
      }
    </style>
  </defs>
  <path class="cls-1" d="M62.35,42.6c-.49-3.26-3.01-3.74-7.18-3.47l-.6.04.06-.6c.16-1.45.4-6.23-2.99-6.92-1.03-.21-6.21-.15-7.1.09-.91.24-2.7,1.93-2.7,2.72v4.67h-5.08V8.28c-.13-.28-1.11-.83-1.42-.84h-3.57l-.07-.42c-.1-.61-.06-1.47,0-2.38.11-1.94.24-4.34-1.12-4.67L7.64-.08h-.05c-.27,0-.97.6-1.1.87v6.65h-3.86c-.36,0-1.15.61-1.33.99l.1,54.77c.26.56.92.69,1.44.7h56.04c1.98-.12,3.28-1.42,3.47-3.5.27-2.93.14-6.14.02-9.24-.11-2.86-.22-5.81-.04-8.58h0ZM9.14,2.77h19.7v4.67H9.14V2.77ZM10.76,61.06h-6.7v-10.56h6.7v10.56ZM24.37,61.06h-10.76v-10.56h10.76v10.56ZM33.91,61.06h-6.7v-10.56h6.7v10.56ZM34.12,47.66H4.06V10.29h30.06v37.37ZM44.68,35.27c0-.43.69-.86.7-.86.72-.34,5.35-.43,6.26.51l.14.15v4.06h-7.11v-3.86ZM59.5,61.06h-22.15l-.6-.6v-9.87l9.79,2,.04.37c.15,1.31.99,1.96,1.75,1.92.75-.04,1.23-.74,1.24-1.82v-.41s9.93-2.06,9.93-2.06v10.47h0ZM59.5,47.13l-.02.08c-.16.51-.76.74-5.83,1.73-1.37.27-2.78.54-3.15.68l-.14.05-.65-.13-.11-.23c-.31-.68-.87-1.07-1.47-1.05-.6.02-1.11.43-1.37,1.11l-.16.41-9.59-2.12-.07-.32c-.31-1.56-.31-3.41.02-4.96l.09-.4h21.85l.6.6v4.55h0Z"/>
  <path class="cls-1" d="M11.55,18.74c.38-.23.94-.78.52-1.82-.27-.66-.85-.81-1.29-.82-.82-.02-1.74.47-2.02,1.08-.2.42-.09.87.32,1.34.6.68,1.76.66,2.47.22Z"/>
  <path class="cls-1" d="M11.55,33.97c.38-.23.94-.78.52-1.82-.27-.66-.85-.81-1.29-.82-.82-.02-1.74.47-2.02,1.08-.2.42-.09.87.32,1.34.6.68,1.76.66,2.47.22Z"/>
  <path class="cls-1" d="M19.55,18.98c.56-.12.96-.44,1.13-.93.16-.48.05-1.01-.28-1.39-.41-.47-1.11-.63-1.97-.45-.94.19-1.22.93-1.09,1.57.16.76.92,1.47,2.22,1.2h0Z"/>
  <path class="cls-1" d="M26.45,18.75c.7.43,1.83.47,2.45-.23.41-.47.52-.92.33-1.33-.28-.6-1.16-1.07-1.98-1.07h-.05c-.44.01-1.03.16-1.29.81-.42,1.03.16,1.58.55,1.82h0Z"/>
  <path class="cls-1" d="M19.55,34.21c.56-.12.96-.44,1.13-.93.16-.48.05-1.01-.28-1.39-.41-.47-1.11-.63-1.97-.45-.94.19-1.22.93-1.09,1.57.16.76.92,1.47,2.22,1.2h0Z"/>
  <path class="cls-1" d="M26.45,33.98c.7.43,1.83.47,2.45-.23.41-.47.52-.92.33-1.33-.28-.6-1.16-1.07-1.98-1.07h-.05c-.44.01-1.03.16-1.29.81-.42,1.03.16,1.58.55,1.82h0Z"/>
  <path class="cls-1" d="M10.63,23.7c-.52,0-1.04.2-1.42.53-.35.31-.83.96-.08,1.87.5.61,1.2.58,1.57.51.71-.13,1.34-.62,1.52-1.17.14-.41.01-.83-.37-1.24-.33-.35-.77-.5-1.22-.5h0Z"/>
  <path class="cls-1" d="M19.08,23.71c-.09,0-.18,0-.28.02-.7.08-1.2.42-1.39.95-.18.5-.06,1.08.31,1.47.47.49,1.23.61,2.15.32.74-.23.94-.95.82-1.53-.12-.59-.62-1.22-1.6-1.22h0Z"/>
  <path class="cls-1" d="M27.55,23.72c-.08,0-.15,0-.23.01-.95.08-1.44.77-1.51,1.42-.05.5.14,1.1.83,1.32.99.3,1.78.18,2.22-.35.36-.43.43-1.1.16-1.61-.26-.51-.78-.78-1.47-.78h0Z"/>
  <path class="cls-1" d="M10.63,38.93c-.52,0-1.04.2-1.42.53-.35.31-.83.96-.08,1.87.5.61,1.2.58,1.57.51.71-.13,1.34-.62,1.52-1.17.14-.41.01-.83-.37-1.24-.33-.35-.77-.5-1.22-.5h0Z"/>
  <path class="cls-1" d="M19.08,38.94c-.09,0-.18,0-.28.02-.7.08-1.2.42-1.39.95-.18.5-.06,1.08.31,1.47.47.49,1.23.61,2.15.32.74-.23.94-.95.82-1.53-.12-.59-.62-1.22-1.6-1.22h0Z"/>
  <path class="cls-1" d="M27.55,38.95c-.08,0-.15,0-.23.01-.95.08-1.44.77-1.51,1.42-.05.5.14,1.1.83,1.32.99.3,1.78.18,2.22-.35.36-.43.43-1.1.16-1.61-.26-.51-.78-.78-1.47-.78h0Z"/>
</svg>