<?xml version="1.0" encoding="UTF-8"?>
<svg id="Layer_1" data-name="Layer 1" xmlns="http://www.w3.org/2000/svg" viewBox="0 0 63.82 63.82">
  <defs>
    <style>
      .cls-1 {
        fill: #0a153a;
      }
    </style>
  </defs>
  <path class="cls-1" d="M30.42,7.34c16.31-1.07,26.04,16.55,18.6,30.55-2.62,4.94-8.42,7.84-8.91,13.73-.24,2.89.48,7.19-.05,9.8-.2.98-1.58,2.29-2.59,2.44-1.8.28-9.71.28-11.5,0-1.2-.18-2.49-1.61-2.64-2.81-.34-2.83.23-6.32.01-9.24-.42-5.61-4.85-7.81-7.73-11.98-8.87-12.85-1.28-31.45,14.81-32.5ZM34.86,47.11h4.3c2.09-3.81,6.14-6.5,8.11-10.34,5.35-10.43.53-23.94-11.19-26.84-15.78-3.9-27.21,12.96-19.92,26.84,2.05,3.89,6.04,6.46,8,10.34h4.4v2.1h-3.56c.96,1.81-.11,11.53.68,12.32.33.24.71.23,1.09.27,2.62.22,7.01.18,9.66,0,.88-.06,1.4.06,1.55-.96.5-3.64-.59-7.96.44-11.62h-3.56v-2.1Z"/>
  <path class="cls-1" d="M24.48,40.82c-1.36-.19-2.42-1.28-2.6-2.64-.07-.49.09-1.71-.05-1.94-.06-.09-1.45-.75-1.85-1.19-1.97-2.13-1.86-6.76,1.04-8.08-.34-.98-1.08-1.52-1.23-2.63-.5-3.6,1.4-6.67,5.22-6.59-.21-2.09.55-3.95,2.83-4.2,1.49-.16,7.38-.19,8.61.2,1.75.55,2.19,2.35,1.98,3.99,4.98-.04,6.77,5.45,3.99,9.11,3.56,2.07,3.02,8.38-1.05,9.35.86,1.65-.47,4.61-2.41,4.61h-6.18v10.69c0,.15,1.65.57,2.01,2.08.43,1.83-.45,3.1-2.01,3.94l-.12,2.16h-1.98v-2.16c-2.06-.97-2.92-3.49-1.23-5.26.32-.33,1.23-.69,1.23-.76v-10.69c-1.92-.19-4.33.26-6.18,0ZM30.67,15.66h-3.04c-.81,0-.82,2.72.94,2.1v2.1h-4.51c-.17,0-1.15.58-1.34.75-1.77,1.62-1.05,5.24,1.55,5.54,3.03.35,2.86-2.47.11-2.1v-2.1c3.46-.72,5.86,3.65,2.71,5.75-1.59,1.06-3.17.11-4.81.85-1.82.82-2.02,4.01-.61,5.23,1.41,1.22,5.88,1.1,4.61-.84-.57-.87-2.04-.4-2.95-.51v-2.1c1.53.03,3.16-.32,4.33.91,1.65,1.74.93,4.68-1.39,5.28-.62.16-1.23,0-1.75.14-.98.28-.53,2.05-.04,2.05h6.18V15.66h0ZM35.81,15.66h-3.04v23.06h6.18c.49,0,.94-1.78-.04-2.05-1.38-.39-1.88.31-3.21-1.19-1.11-1.26-1.17-2.58-.1-3.89,1.29-1.58,2.67-1.26,4.51-1.25v2.1c-.72.08-2.7-.29-3.01.47-.82,2.02,2.16,1.83,3.43,1.53,2.66-.62,3.02-5.08.32-5.99-1.52-.51-2.95.23-4.38-.65-3.4-2.1-.93-6.49,2.59-5.84v2.1c-1.96-.71-3.02,1.82-1.14,2.08,2.75.38,4.48-1.73,3.51-4.34-.25-.68-1.36-1.93-2.06-1.93h-4.51v-2.1c1.57.57,1.94-1.82.94-2.1ZM32.5,53.66c-1.43-1.43-2.93,1.91-.7,1.82.98-.04,1.25-1.27.7-1.82Z"/>
  <path class="cls-1" d="M6.64,26.33h-.88c-.82,0-1.49.68-1.49,1.5,0,.82.67,1.49,1.5,1.49h.88c.82,0,1.49-.68,1.49-1.5,0-.82-.67-1.49-1.5-1.49Z"/>
  <path class="cls-1" d="M10.72,13.88l-.76-.44c-.72-.41-1.63-.16-2.04.55-.41.72-.16,1.63.55,2.04l.76.44c.72.41,1.63.16,2.04-.55.41-.72.16-1.63-.55-2.04Z"/>
  <path class="cls-1" d="M20.48,5.14l-.44-.76c-.42-.71-1.33-.95-2.04-.54-.71.42-.95,1.33-.54,2.04l.44.76c.42.71,1.33.95,2.04.54.71-.42.95-1.33.54-2.04Z"/>
  <path class="cls-1" d="M33.3,2.45v-.88c0-.82-.68-1.49-1.5-1.49-.82,0-1.49.67-1.49,1.5v.88c0,.82.68,1.49,1.5,1.49.82,0,1.49-.67,1.49-1.5Z"/>
  <path class="cls-1" d="M45.75,6.52l.44-.76c.41-.72.16-1.63-.55-2.04-.72-.41-1.63-.16-2.04.55l-.44.76c-.41.72-.16,1.63.55,2.04.72.41,1.63.16,2.04-.55Z"/>
  <path class="cls-1" d="M54.49,16.28l.76-.44c.71-.42.95-1.33.54-2.04s-1.33-.95-2.04-.54l-.76.44c-.71.42-.95,1.33-.54,2.04.42.71,1.33.95,2.04.54Z"/>
  <path class="cls-1" d="M57.18,29.1h.88c.82,0,1.49-.68,1.49-1.5,0-.82-.67-1.49-1.5-1.49h-.88c-.82,0-1.49.68-1.49,1.5,0,.82.67,1.49,1.5,1.49Z"/>
</svg>