<?xml version="1.0" encoding="UTF-8"?>
<svg id="Layer_1" data-name="Layer 1" xmlns="http://www.w3.org/2000/svg" xmlns:xlink="http://www.w3.org/1999/xlink" viewBox="0 0 63.82 63.82">
  <defs>
    <style>
      .cls-1 {
        fill: none;
      }

      .cls-2 {
        fill: #0a153a;
      }

      .cls-3 {
        clip-path: url(#clippath);
      }
    </style>
    <clipPath id="clippath">
      <rect class="cls-1" x="-.09" y=".16" width="64" height="64"/>
    </clipPath>
  </defs>
  <g class="cls-3">
    <g>
      <path class="cls-2" d="M57.72,46.13v2.25l1.76.18c.61.5-.04,2.82,2.37,3.57.61.19,1.56-.02,1.77.69.14.49.11,2.64.04,3.24-.15,1.42-1.01,2.42-2.4,2.72l-60.49-.04c-.13-.06-.3-.11-.4-.21-.31-.31-.26-3.81-.21-4.52.16-2.03,1.2-3.95,2.89-5.1,1.1-.75,4.45-1.75,4.67-3.13.07-.43-1.48-2.87-1.77-3.69-1.9-5.44-.32-10.93,6.2-10.93,7.23,0,8.37,6.76,5.67,12.24-.88,1.78-2.53,2.3-.17,3.79.42.26,1.85,1.02,2.27.99.62-.04,3.13-1.29,3.48-1.86.7-1.14.06-1.12-.33-1.89-2.74-5.33-3.18-12.97,4.64-13.26,7.26-.27,8.77,5.85,6.29,11.62-.75,1.73-2.6,2.85-.59,4.2.4.27,2.93,1.53,3.27,1.54.48.01,1.21-.3,1.79-.14v-2.25h-2.97c-.69,0-.96-1.43-.37-1.86l25.62-.04c1.11.52.31,1.9-.05,1.9h-2.97ZM11.8,33.27c-2.78.1-4.74,1.63-4.69,4.56.06,3.51,2.9,10.24,7.16,6.94,2.2-1.7,3.66-6.84,2.39-9.31-.89-1.72-3.06-2.26-4.86-2.19h0ZM27.77,33.28c-4.83.22-5.19,3.79-4.12,7.68,1.91,6.93,7.85,5.45,9.18-.97.86-4.13-.47-6.92-5.06-6.71h0ZM55.67,46.13h-15.16v2.25h15.16v-2.25ZM2.21,53.4c-.17.99.12,2.34,0,3.38h13.72c-.16-2.73.23-5.41,2.25-7.37-1.29-.44-2.97-1.24-3.28-2.66-1.7,1.16-3.82,1.1-5.52,0-1.05,2.83-4.69,2.43-6.32,4.85-.19.28-.81,1.53-.85,1.81ZM17.98,53.81c-.14.88.1,2.05,0,2.97h14.54c.06-.15-.2-.25-.2-.31v-3.69c0-.52,1.33-.5,1.65-.6.65-.21,2.38-1.06,1.63-1.85-.95-.99-4.45-1.36-4.73-3.37-1.98.75-3.62.85-5.6-.03-1.15,2.71-5.04,2.49-6.51,4.99-.17.29-.74,1.62-.78,1.89ZM57.89,50.46l-19.71-.05c-.49,1.88-1.86,3.3-3.78,3.73-.03.57-.18,2.13.31,2.45l26.35.15c.87-.26.51-1.89.53-2.6-1.89-.5-3.09-1.84-3.69-3.68h0Z"/>
      <path class="cls-2" d="M39.28,14.18c-4.14-.74-3.86-8.05.33-8.58,5.26-.67,11.9.38,17.3.07,2.66.75,2.9,3.14,2.66,5.55-.07.74-.43,1.58-.95,2.12-.57.59-1.82.78-1.93,1.35v15.74c1.46.59,2.68,1.41,2.87,3.1.27,2.4.02,5.07-2.76,5.64l-17.93-.1c-3.47-.91-3.37-7.84.42-8.51v-3.69H6c-.14,0-1.11-.4-1.34-.5-3.19-1.5-3.25-6.07-.13-7.73.2-.11,1.17-.58,1.27-.58h33.49v-3.89h0ZM39.42,7.66c-1.36.4-1.54,4.54.38,4.66,5.16-.42,11.34.61,16.38.02,2.16-.25,2.09-4.41.19-4.7l-16.94.03ZM54.64,14.38h-13.31v16.18h13.31V14.38ZM39.28,19.91H6.41c-2.07,0-3.12,3.2-.99,4.48.14.08.94.44.99.44h32.87v-4.92ZM39.99,32.51c-2.19-.04-2.17,4.59-.15,4.76,5.07-.35,11.19.63,16.14.05,2.45-.29,2.25-4.54.32-4.83l-16.3.02Z"/>
      <path class="cls-2" d="M61.27,58.98h-.02l-60.53-.04-.04-.02s-.06-.03-.09-.04c-.12-.05-.27-.11-.37-.21-.45-.46-.27-4.64-.27-4.68.17-2.13,1.28-4.1,2.98-5.25.35-.24.88-.48,1.49-.77,1.25-.58,2.95-1.37,3.09-2.23.01-.21-.55-1.25-.93-1.93-.36-.67-.7-1.29-.83-1.65-1.17-3.36-1-6.49.49-8.58,1.22-1.71,3.26-2.62,5.91-2.62,2.82,0,4.95,1.02,6.15,2.96,1.52,2.45,1.4,6.11-.3,9.57-.24.49-.54.88-.8,1.23-.35.46-.62.83-.56,1.17.06.32.42.69,1.11,1.12.53.33,1.83.98,2.15.96.6-.04,3.02-1.27,3.32-1.76.43-.69.31-.83.04-1.15-.11-.14-.26-.31-.38-.54-1.54-3-2.71-7.58-.92-10.64,1.07-1.83,3-2.81,5.74-2.91,2.94-.11,5.17.82,6.45,2.68,1.54,2.25,1.55,5.7.04,9.22-.21.49-.51.94-.78,1.34-.7,1.05-1.17,1.75.12,2.62.4.27,2.86,1.48,3.17,1.5.16,0,.38-.04.6-.08.31-.06.65-.12.97-.1v-1.81h-2.77c-.36,0-.67-.27-.82-.73-.17-.51-.11-1.18.32-1.5l.05-.04,25.73-.04.04.02c.54.25.78.74.65,1.32-.1.46-.45.96-.79.96h-2.77v1.86l1.64.17.05.04c.26.21.33.61.42,1.07.17.89.37,2,1.88,2.47.16.05.36.07.57.09.51.05,1.14.11,1.33.74.16.54.11,2.77.05,3.32-.16,1.53-1.1,2.59-2.57,2.89h-.02s0,0,0,0ZM.81,58.53l60.42.04c1.27-.27,2.08-1.2,2.22-2.53.07-.65.09-2.73-.03-3.16-.1-.34-.43-.4-.98-.45-.22-.02-.45-.04-.65-.11-1.75-.54-2-1.89-2.17-2.78-.06-.33-.12-.65-.24-.78l-1.88-.19v-2.64h3.17c.08-.02.37-.35.41-.76.03-.33-.1-.57-.41-.72l-25.5.04c-.22.21-.24.66-.13,1,.07.22.22.45.43.45h3.17v2.73l-.26-.07c-.31-.08-.68-.01-1.04.06-.25.05-.48.09-.69.09-.43-.01-3.05-1.35-3.38-1.57-1.63-1.09-.92-2.15-.23-3.18.27-.4.54-.81.74-1.27,1.46-3.4,1.46-6.7,0-8.83-1.19-1.74-3.3-2.61-6.1-2.5-2.59.1-4.41,1.01-5.4,2.71-1.71,2.92-.56,7.34.93,10.25.1.19.22.33.33.46.36.42.54.75,0,1.63-.39.64-2.99,1.91-3.64,1.95-.57.04-2.18-.89-2.39-1.02-.81-.51-1.21-.94-1.29-1.39-.1-.52.24-.97.63-1.49.25-.33.53-.71.76-1.17,1.64-3.33,1.77-6.85.32-9.18-1.12-1.81-3.13-2.77-5.81-2.77-2.51,0-4.44.85-5.57,2.45-1.41,1.98-1.56,4.97-.43,8.21.11.33.46.97.8,1.59.69,1.27,1.02,1.9.97,2.19-.17,1.07-1.84,1.85-3.32,2.54-.57.27-1.12.52-1.43.74-1.59,1.09-2.64,2.94-2.8,4.95-.07.93-.06,4.05.16,4.37.04.04.14.08.23.11.02.01.05.02.07.03h0ZM32.67,56.98h-14.92l.02-.23c.05-.42.02-.91-.01-1.38-.03-.54-.06-1.11.01-1.6.05-.3.62-1.66.8-1.96.73-1.25,2.04-1.84,3.29-2.42,1.36-.62,2.64-1.21,3.21-2.55l.08-.19.19.08c1.8.8,3.38.8,5.44.02l.24-.09.03.25c.16,1.17,1.59,1.75,2.84,2.27.75.31,1.45.6,1.83.99.27.28.27.56.22.74-.19.74-1.46,1.3-1.93,1.45-.1.03-.26.05-.45.08-.29.03-1.05.13-1.05.33v3.61c.09.07.28.22.19.45l-.05.14h0ZM18.2,56.57h13.93s-.02-.06-.02-.1v-3.69c0-.57.82-.67,1.41-.74.15-.02.31-.04.38-.06.52-.17,1.54-.68,1.66-1.16.02-.08.03-.2-.12-.36-.31-.33-.98-.6-1.68-.89-1.28-.52-2.72-1.11-3.05-2.34-2,.71-3.57.7-5.34-.03-.67,1.35-2.02,1.97-3.33,2.57-1.2.55-2.44,1.12-3.11,2.26-.17.28-.71,1.58-.75,1.81-.07.44-.04.99,0,1.51.02.41.05.83.03,1.22h0ZM16.15,56.98H1.98l.03-.23c.06-.47.02-1.04-.01-1.58-.04-.62-.08-1.27.01-1.81.05-.32.69-1.6.88-1.89.78-1.16,1.98-1.69,3.15-2.21,1.34-.59,2.6-1.15,3.14-2.6l.09-.24.21.14c1.68,1.08,3.71,1.08,5.3,0l.25-.17.06.3c.22,1.03,1.28,1.88,3.15,2.51l.32.11-.24.23c-1.69,1.65-2.39,3.94-2.19,7.21v.22s.02,0,.02,0ZM2.43,56.57h13.28c-.15-3.14.52-5.41,2.1-7.08-1.67-.62-2.69-1.44-3.03-2.43-1.62.98-3.61.97-5.3-.02-.65,1.44-1.98,2.03-3.27,2.6-1.11.49-2.27,1-2.98,2.06-.2.3-.78,1.51-.82,1.73-.08.5-.05,1.12,0,1.72.03.48.06.97.03,1.42h0ZM61.08,56.94h-.03l-26.41-.15-.05-.03c-.51-.33-.49-1.44-.42-2.46l.02-.32.15-.03c1.79-.4,3.15-1.74,3.63-3.58l.04-.15,20.02.05.05.14c.62,1.89,1.81,3.08,3.55,3.55l.16.04v.16c0,.14,0,.33.02.54.06.84.14,2-.7,2.25h-.03s0,.01,0,.01ZM34.78,56.39l26.24.15c.5-.18.43-1.12.38-1.82-.01-.15-.02-.29-.02-.42-1.73-.51-2.99-1.76-3.64-3.63l-19.41-.05c-.54,1.86-1.93,3.22-3.74,3.69v.02c-.03.44-.12,1.76.19,2.06h0ZM55.87,48.58h-15.57v-2.66h15.57v2.66ZM40.71,48.17h14.75v-1.84h-14.75v1.84ZM12.04,45.87c-.44,0-.88-.1-1.3-.31-2.4-1.15-3.78-5.3-3.83-7.73-.05-2.87,1.78-4.65,4.89-4.77.89-.03,3.89.03,5.05,2.3,1.36,2.65-.27,7.89-2.44,9.57-.8.62-1.59.93-2.36.93h0ZM11.81,33.48c-2.86.11-4.54,1.73-4.49,4.35.04,2.32,1.35,6.28,3.59,7.36,1.02.49,2.11.29,3.24-.58,2.2-1.7,3.5-6.78,2.33-9.06-1.05-2.05-3.84-2.11-4.67-2.08h0ZM27.94,45.73c-2,0-3.67-1.75-4.49-4.71-.76-2.77-.66-4.86.31-6.19.78-1.08,2.13-1.67,3.99-1.75,2.06-.09,3.58.41,4.5,1.49,1.02,1.19,1.28,3.03.77,5.47-.69,3.33-2.69,5.62-4.98,5.69h-.11ZM28.24,33.47c-.15,0-.3,0-.45.01-1.73.08-2.97.61-3.68,1.58-.89,1.23-.98,3.2-.25,5.84.78,2.82,2.34,4.47,4.19,4.41,2.1-.07,3.94-2.22,4.59-5.37.48-2.3.25-4.03-.68-5.12-.77-.9-2.02-1.36-3.71-1.36h0Z"/>
      <path class="cls-2" d="M56.82,39.37h-.02l-17.96-.1h-.02c-1.95-.52-2.74-2.69-2.66-4.61.07-1.7.88-3.81,2.92-4.27v-3.31H6c-.22,0-1.36-.49-1.43-.52-1.55-.73-2.5-2.21-2.55-3.95-.04-1.75.88-3.34,2.41-4.15.01,0,1.18-.6,1.36-.6h33.28v-3.52c-2.11-.47-3.01-2.56-2.96-4.46.05-1.96,1.16-4.19,3.47-4.49,2.96-.37,6.39-.21,9.71-.05,2.58.12,5.24.25,7.6.12h.07c2.91.83,3.03,3.52,2.81,5.78-.08.81-.48,1.69-1.01,2.24-.28.29-.69.49-1.05.66-.37.18-.76.36-.82.57v15.58c1.25.52,2.66,1.36,2.87,3.22.4,3.47-.56,5.38-2.92,5.86h-.02s0,0,0,0ZM38.89,38.86l17.88.1c2.1-.44,2.94-2.21,2.58-5.41-.19-1.7-1.5-2.44-2.75-2.94l-.13-.05v-15.92c.09-.42.56-.64,1.05-.88.35-.17.71-.34.94-.57.47-.49.83-1.27.9-2,.22-2.22.09-4.58-2.48-5.33-2.38.13-5.04,0-7.61-.12-3.3-.16-6.71-.32-9.64.05-2.09.26-3.07,2.25-3.12,4.09-.04,1.78.8,3.73,2.8,4.08l.17.03v4.27H5.81c-.15.05-.95.43-1.19.55-1.39.74-2.23,2.18-2.19,3.77.04,1.58.9,2.92,2.31,3.59.24.11,1.13.47,1.27.48h33.48v4.06l-.17.03c-1.93.34-2.69,2.32-2.75,3.92-.07,1.69.63,3.72,2.33,4.18ZM52.27,37.72c-1.64,0-3.34-.08-5-.16-2.51-.12-5.1-.24-7.42-.08h-.03c-1.19-.1-1.75-1.53-1.69-2.83.06-1.18.66-2.37,1.86-2.35l16.32-.02h.02c1.12.17,1.68,1.46,1.66,2.64-.02,1.09-.55,2.43-1.98,2.6-1.18.14-2.44.19-3.73.19ZM42.31,36.99c1.63,0,3.32.08,4.98.16,2.95.14,6.01.28,8.66-.03,1.17-.14,1.6-1.27,1.62-2.2.02-1-.42-2.08-1.3-2.23l-16.29.02h-.02c-.91,0-1.37.98-1.42,1.96-.06,1.1.38,2.31,1.3,2.4.8-.06,1.63-.08,2.47-.08ZM54.85,30.76h-13.72V14.17h13.72v16.59ZM41.53,30.35h12.9v-15.77h-12.9v15.77ZM39.48,25.03H6.41c-.15,0-1.06-.45-1.1-.47-1.03-.62-1.49-1.79-1.16-2.98.31-1.12,1.22-1.88,2.26-1.88h33.08v5.33ZM6.43,24.62h32.64v-4.51H6.41c-.99,0-1.65.79-1.86,1.58-.22.8-.08,1.88.98,2.52.11.07.77.36.91.41ZM52.47,12.73c-1.61,0-3.28-.08-4.91-.15-2.62-.12-5.32-.25-7.75-.05h-.03c-.86-.05-1.45-.81-1.59-2.03-.14-1.25.26-2.76,1.16-3.02h.06s16.96-.04,16.96-.04h.02c1.13.18,1.62,1.47,1.6,2.59-.02,1.15-.59,2.38-1.8,2.52-1.19.14-2.44.19-3.73.19h0ZM42.67,12.01c1.62,0,3.28.08,4.92.15,2.92.14,5.93.28,8.57-.03.97-.11,1.42-1.14,1.44-2.12.02-.98-.4-2.03-1.24-2.18l-16.9.03c-.58.2-.98,1.39-.84,2.58.04.37.25,1.6,1.19,1.67.93-.08,1.89-.1,2.87-.1Z"/>
    </g>
  </g>
</svg>