<?xml version="1.0" encoding="UTF-8"?>
<svg id="Layer_1" data-name="Layer 1" xmlns="http://www.w3.org/2000/svg" xmlns:xlink="http://www.w3.org/1999/xlink" viewBox="0 0 63.82 63.82">
  <defs>
    <style>
      .cls-1 {
        fill: none;
      }

      .cls-2 {
        fill: #0a153a;
      }

      .cls-3 {
        clip-path: url(#clippath);
      }
    </style>
    <clipPath id="clippath">
      <rect class="cls-1" x="-.09" y="-.45" width="64" height="64"/>
    </clipPath>
  </defs>
  <g class="cls-3">
    <path class="cls-2" d="M10.15,13.06h15.31c.22,0,2.5-1.96,3.67-2.36,8.88-3.07,13.47,1.84,21.39,2.37,1.07.07,2.19-.07,3.26-.01-.47-1.35-.49-3.01,1.14-3.31,1.42-.27,5.88-.21,7.41-.06.58.06,1.5.17,1.57.84l-.12,28.34c-.32.36-.75.43-1.2.48-1.09.12-7.87.11-8.43-.27-.24-.16-.35-.41-.39-.69h-.34l-1.34,1.57c1.09,2.21,1,5.04-.97,6.73-.68.58-1.93.74-2.28,1.1-.29.31-.38,1.19-.68,1.73-1.3,2.32-4.11,2.7-6.29,1.39-.67,1.68-2.51,2.74-4.32,2.65-.96-.05-2.62-1.13-2.92-1.11-.19.01-1.24.88-1.74,1.07-2.43.96-5.47.26-7.52-1.3l-15.32-13.56c-.29.16-.51.47-.83.57-.96.29-6.86.25-8.09.11-.45-.05-.88-.13-1.2-.48L0,10.07c.16-.22,1.46-.37,1.82-.4,1.43-.1,6.17-.2,7.32.17,1.41.45.41,2.04,1,3.22h0ZM7.5,12.33H2.56l-.36.36v23.63l.36.36h4.94V12.33ZM50.82,37.58l2.73-3.18V15.82c-2.33-.23-4.69-.27-7-.71-3.48-.66-6.35-2.55-9.98-2.79-6.32-.41-8.63,1.61-12.67,5.91-1.65,1.75-4.52,4.38-1.66,6.5,1.29.96,2.34.57,3.59-.24,1.25-.81,5.63-5.33,6.66-5.42.21-.02.4,0,.58.13,3.99,4.3,7.99,8.57,11.94,12.9,1.42,1.56,3.09,3.98,4.58,5.31.4.36.81.55,1.26.17h0ZM56.19,12.33v23.99l.36.36h4.58l.36-.36V12.69l-.36-.36h-4.94ZM22.09,15.47h-11.57s-.42.37-.48.49l.06,18.98,1.98,2.11c4.97,3.63,9.45,9.1,14.35,12.65,1.3.94,2.91,1.77,4.57,1.71.49-.02,1.57-.33,1.22-.99l-6.37-5.72c.27-2.32,1.47-1.94,2.97-.78,2.69,2.05,5.07,4.87,7.91,6.8,2.26.66,3.87-.65,1.86-2.59-2.29-2.21-5.36-4.06-7.6-6.4-.37-1.39.75-2.37,2.04-1.55,3.35,2.15,7.08,6.81,10.45,8.59,1.99,1.06,3.17-.77,2.35-2.59l-10.25-9.28c-.88-.97-.03-2.35,1.18-2.17l11.23,10.01c1.93.89,2.72-1.92,1.79-3.24l-17.05-18.91c-.34-.2-.49-.08-.78.06-1.22.57-3.2,2.86-4.47,3.74-2.45,1.69-5.37,2.09-7.61-.19-3.6-3.66.08-7.72,2.81-10.41.03-.07-.54-.35-.6-.36h0Z"/>
  </g>
</svg>