<?xml version="1.0" encoding="UTF-8"?>
<svg id="Layer_1" data-name="Layer 1" xmlns="http://www.w3.org/2000/svg" xmlns:xlink="http://www.w3.org/1999/xlink" viewBox="0 0 63.82 63.82">
  <defs>
    <style>
      .cls-1 {
        fill: none;
      }

      .cls-2 {
        fill: #0a153a;
      }

      .cls-3 {
        clip-path: url(#clippath);
      }
    </style>
    <clipPath id="clippath">
      <rect class="cls-1" x="-.09" y="0" width="64" height="64"/>
    </clipPath>
  </defs>
  <g class="cls-3">
    <g>
      <path class="cls-2" d="M51.46,7.85l5.91,10.36c10.53,6.47,7.85,22.69-4.51,24.85-12.8,2.23-21.03-13.5-11.82-22.7.72-.71,2.13-1.49,2.69-2.15.97-1.16,3.98-6.52,4.67-8.04.16-.36.38-.65.32-1.08-4.33-.87-8.71-1.67-13.11-1.91-.37,1.44-1.35,2.11-2.62,2.7l.02,23.24c-.08,1.36-1.91,1.47-2.16.2V9.88c-1.31-.59-2.24-1.33-2.72-2.74-4.47.22-8.85,1.08-13.22,1.95l5.2,9.12c9.99,6.02,8.18,21.58-3.26,24.59C1.67,46.8-6.73,26.37,6.46,18.21l6.19-10.61c4.95-1.51,10.09-2.2,15.23-2.65.67-.65.67-1.32,1.46-1.99,1.53-1.29,3.78-1.28,5.26.09.67.63.7,1.34,1.34,1.89,5.21.67,10.58,1.05,15.51,2.91h0ZM31.65,4.17c-2.23.36-1.89,3.93.57,3.62,2.21-.28,1.77-4-.57-3.62ZM16.84,16.84l-3.55-6.03-3.55,6.03c2.44-.47,4.67-.47,7.11,0ZM54.11,16.84l-3.55-6.03-3.55,6.03c2.44-.47,4.67-.47,7.11,0ZM12.48,18.63c-14.43.91-13.36,22.93,1.02,22.57,15.08-.37,14.24-23.53-1.02-22.57ZM59.71,36.23c4.83-6.29.93-15.69-6.67-17.35-6.96-1.52-13.44,3.62-13.8,10.67-.04.36.26,2.25.32,2.57.06.33,1.19,3.7,1.83,4.11,0,0,.21-3.98.27-4.04.82-.42,5.54-.6,5.54.48v8.08h.43v-6.14c0-1.08,5.82-1.08,5.82,0v6.14h.43v-10.66c0-.08.25-.48.36-.55.61-.37,4.8-.46,5.45.34v6.36h0ZM57.55,31.49h-1.51v8.19l1.51-.97v-7.22ZM45.06,34.08h-1.51v4.63l1.51.97v-5.6ZM51.31,36.01h-1.51v5.17h1.51v-5.17Z"/>
      <path class="cls-2" d="M18.02,62.94c-.97-.27-.43-3.32-.26-4.14.97-4.76,4.92-9.24,9.64-10.51.14-.57-.42-.45-.76-.85-5.83-6.74,2.04-15.74,9.15-11.31,4.08,2.54,4.51,7.74,1.43,11.31-.34.4-.9.28-.76.85,4.46,1.24,8.07,5.11,9.32,9.53.21.74,1.22,5.12.05,5.12h-27.8ZM31.44,37.14c-6.63.7-6.01,10.84,1.01,10.29,7.02-.55,5.64-10.99-1.01-10.29ZM44.2,60.79c-1.91-14.79-22.65-14.79-24.56,0h24.56Z"/>
      <path class="cls-2" d="M12.89,60.81l37.67-.05c1.61.21,1.22,2.39-.43,2.17l-37.34-.17c-.84-.51-.77-1.52.1-1.96Z"/>
      <path class="cls-2" d="M14.51,24.76c.18.25,1.39.62,1.94,1.62,1.15,2.12-.78,3.37-1.64,1.86-.18-.32-.12-.71-.43-1.08-.77-.91-2.73-.39-2.41.89.2.85,1.97.77,2.68,1,1.9.61,2.86,2.9,1.66,4.6-.45.64-1.71,1.22-1.79,1.33-.34.47.08,2.11-1.43,1.9-1.07-.15-.58-1.23-.87-1.73-.13-.23-.79-.38-1.08-.64-.88-.79-2.38-2.83-.69-3.51,1.32-.53,1.29,1.09,1.75,1.58.8.85,2.72.43,2.41-.89-.18-.75-2.09-.76-2.83-1.06-2.03-.82-2.71-3.01-1.29-4.75.44-.54,1.65-1.15,1.73-1.28.39-.67-.21-2.37,1.74-1.53.52.4.36,1.42.56,1.7h0Z"/>
    </g>
  </g>
</svg>