<?xml version="1.0" encoding="UTF-8"?>
<svg id="Layer_1" data-name="Layer 1" xmlns="http://www.w3.org/2000/svg" xmlns:xlink="http://www.w3.org/1999/xlink" viewBox="0 0 63.82 63.82">
  <defs>
    <style>
      .cls-1 {
        fill: none;
      }

      .cls-2 {
        fill: #0a153a;
      }

      .cls-3 {
        clip-path: url(#clippath);
      }
    </style>
    <clipPath id="clippath">
      <rect class="cls-1" x="0" y="-.09" width="64" height="64"/>
    </clipPath>
  </defs>
  <g class="cls-3">
    <g>
      <path class="cls-2" d="M7.28,48.96l.31-.69.08-45.53c.51-1.43,1.69-2.38,3.19-2.58,10.38.59,21.6-.78,31.88,0,1.15.09,1.68.31,2.58,1.01,1.55,1.2,6.4,6.03,7.56,7.58,1.76,2.37.54,6.67.93,9.52,13.27,3.84,13.07,22.42-.03,26.45l.02,15.31c-.11,2.15-1.51,3.69-3.69,3.88l-46.73-.1c-3.36-.94-4.46-4.73-2.17-7.38-1.85-2.16-1.58-5.55,1-6.96.19-.11.98-.51,1.08-.51h3.99ZM42.44,2.75H10.66c-.08,0-.7.79-.7.9v45.32h9.26c1.32,0,3.03,2.27,3.24,3.53.37,2.16-1.15,3.29-1.15,3.94,0,.28.6.81.78,1.21.54,1.2.57,2.46.02,3.66h28.39c.08,0,.45-.23.51-.33l.19-15.8c-12.04.86-19.66-13.15-11.75-22.6,1.77-2.11,6.06-4.89,8.86-4.89h2.89v-6.37h-6.08c-.12,0-1.4-.83-1.57-1.02-.33-.34-1.12-1.86-1.12-2.27V2.75ZM49.41,8.93l-4.38-4.38v3.49c0,.2.7.9.9.9h3.49ZM57.9,23.34c-11.04-10.77-27,6.94-15.07,16.76,11.03,9.08,25.18-6.9,15.07-16.76ZM3.06,54.68c.27.24.86.43,1.23.47,4.38.49,9.66-.37,14.13-.02,2.26-.63,2.04-3.5-.39-3.77-4.25-.48-9.38.34-13.73.02-1.6.03-2.34,2.3-1.25,3.3h0ZM3.74,57.77c-1.62.36-1.58,3.3.17,3.53,4.59-.37,10.06.54,14.53.02,2.09-.24,1.98-3.3.18-3.58l-14.89.03Z"/>
      <path class="cls-2" d="M13.5,6.98h25.61c.47.24.84.74.93,1.26.14.88.14,6.36-.08,7.07-.14.45-.69,1.02-1.2,1l-25.42-.1c-.48-.17-.7-.53-.77-1.02-.21-1.35-.15-5.32-.02-6.77.07-.72.15-1.24.95-1.44h0ZM37.46,9.52H14.95v4.18h22.51v-4.18Z"/>
      <path class="cls-2" d="M26.05,47.81l21.28-.05c1.92.22,1.92,2.38,0,2.6-6.57-.55-14.29.72-20.72,0-2.04-.23-1.97-2.23-.56-2.55h0Z"/>
      <path class="cls-2" d="M26.25,54.59l21.07-.05c1.92.22,1.92,2.38,0,2.6h-20.92c-1.7-.09-1.86-2.32-.15-2.55Z"/>
      <path class="cls-2" d="M33.42,20.92c.71.72.09,2.26-1.04,2.15-5.86-.51-12.81.66-18.54,0-2.1-.24-1.57-2.69.4-2.6,5.68.36,11.93-.48,17.54,0,.39.03,1.4.21,1.64.45Z"/>
      <path class="cls-2" d="M33.42,43.14c-.24.24-1.25.42-1.64.45-5.61.47-11.86-.37-17.54,0-1.97.09-2.51-2.35-.4-2.6,5.72-.66,12.68.51,18.54,0,1.14-.11,1.76,1.43,1.04,2.15Z"/>
      <path class="cls-2" d="M33.42,27.7c.42.42.36,1.64-.24,1.96l-19.54.2c-1.53-.2-1.46-2.25,0-2.41,6.07.4,12.75-.5,18.74,0,.31.03.82.03,1.04.25Z"/>
      <path class="cls-2" d="M33.42,36.37c-.22.22-.73.23-1.04.26-5.99.51-12.68-.4-18.74,0-1.46-.16-1.53-2.22,0-2.41l19.54.2c.6.32.66,1.54.24,1.96Z"/>
      <path class="cls-2" d="M44.67,36.77c-.3-.3-.37-1.3-.06-1.66l8.05-8.19c1.3-1.51,3.53-1.76,2.73.84l-8.96,8.96c-.33.44-1.43.37-1.76.04h0Z"/>
      <path class="cls-2" d="M53.53,33.68c1.44-.07,1.79,2.44.15,2.54-1.64.1-1.85-2.46-.15-2.54Z"/>
      <path class="cls-2" d="M47.37,28.8c-.93.93-3.01-.38-1.84-1.74,1.19-1.38,2.88.7,1.84,1.74Z"/>
    </g>
  </g>
</svg>